{
	"asset":{
		"generator":"Khronos glTF Blender I/O v4.2.57",
		"version":"2.0"
	},
	"scene":0,
	"scenes":[
		{
			"name":"Scene",
			"nodes":[
				0,
				1
			]
		}
	],
	"nodes":[
		{
			"mesh":0,
			"name":"base",
			"scale":[
				0.21879062056541443,
				0.21879062056541443,
				0.21879062056541443
			],
			"translation":[
				0,
				0.00988689810037613,
				0
			]
		},
		{
			"mesh":1,
			"name":"Circle",
			"scale":[
				0.10851854830980301,
				0.10851854830980301,
				0.10851854830980301
			],
			"translation":[
				-0.00018378591630607843,
				0.013586840592324734,
				0.23771746456623077
			]
		}
	],
	"materials":[
		{
			"doubleSided":true,
			"name":"Material.001",
			"pbrMetallicRoughness":{
				"baseColorFactor":[
					0.009133472107350826,
					0.08021965622901917,
					0.7529425024986267,
					1
				],
				"metallicFactor":0
			}
		}
	],
	"meshes":[
		{
			"name":"Circle",
			"primitives":[
				{
					"attributes":{
						"POSITION":0,
						"NORMAL":1,
						"TEXCOORD_0":2
					},
					"indices":3,
					"material":0
				}
			]
		},
		{
			"name":"Circle.001",
			"primitives":[
				{
					"attributes":{
						"POSITION":4,
						"NORMAL":5,
						"TEXCOORD_0":6
					},
					"indices":7,
					"material":0
				}
			]
		}
	],
	"accessors":[
		{
			"bufferView":0,
			"componentType":5126,
			"count":2814,
			"max":[
				0.993984580039978,
				0,
				1.4484169483184814
			],
			"min":[
				-0.9410746097564697,
				-0.019999999552965164,
				-0.9936952590942383
			],
			"type":"VEC3"
		},
		{
			"bufferView":1,
			"componentType":5126,
			"count":2814,
			"type":"VEC3"
		},
		{
			"bufferView":2,
			"componentType":5126,
			"count":2814,
			"type":"VEC2"
		},
		{
			"bufferView":3,
			"componentType":5123,
			"count":5328,
			"type":"SCALAR"
		},
		{
			"bufferView":4,
			"componentType":5126,
			"count":704,
			"max":[
				0.99673992395401,
				0.09999998658895493,
				0.5384788513183594
			],
			"min":[
				-1.0032600164413452,
				-0.034095026552677155,
				-0.33920449018478394
			],
			"type":"VEC3"
		},
		{
			"bufferView":5,
			"componentType":5126,
			"count":704,
			"type":"VEC3"
		},
		{
			"bufferView":6,
			"componentType":5126,
			"count":704,
			"type":"VEC2"
		},
		{
			"bufferView":7,
			"componentType":5123,
			"count":1140,
			"type":"SCALAR"
		}
	],
	"bufferViews":[
		{
			"buffer":0,
			"byteLength":33768,
			"byteOffset":0,
			"target":34962
		},
		{
			"buffer":0,
			"byteLength":33768,
			"byteOffset":33768,
			"target":34962
		},
		{
			"buffer":0,
			"byteLength":22512,
			"byteOffset":67536,
			"target":34962
		},
		{
			"buffer":0,
			"byteLength":10656,
			"byteOffset":90048,
			"target":34963
		},
		{
			"buffer":0,
			"byteLength":8448,
			"byteOffset":100704,
			"target":34962
		},
		{
			"buffer":0,
			"byteLength":8448,
			"byteOffset":109152,
			"target":34962
		},
		{
			"buffer":0,
			"byteLength":5632,
			"byteOffset":117600,
			"target":34962
		},
		{
			"buffer":0,
			"byteLength":2280,
			"byteOffset":123232,
			"target":34963
		}
	],
	"buffers":[
		{
			"byteLength":125512,
			"uri":"scene.bin"
		}
	]
}
