{
	"asset":{
		"generator":"Khronos glTF Blender I/O v4.2.57",
		"version":"2.0"
	},
	"scene":0,
	"scenes":[
		{
			"name":"Scene",
			"nodes":[
				0
			]
		}
	],
	"nodes":[
		{
			"mesh":0,
			"name":"Circle"
		}
	],
	"materials":[
		{
			"doubleSided":true,
			"name":"Material.001",
			"pbrMetallicRoughness":{
				"baseColorTexture":{
					"index":0
				},
				"metallicRoughnessTexture":{
					"index":1
				}
			}
		}
	],
	"meshes":[
		{
			"name":"Circle.001",
			"primitives":[
				{
					"attributes":{
						"POSITION":0,
						"NORMAL":1,
						"TEXCOORD_0":2
					},
					"indices":3,
					"material":0
				}
			]
		}
	],
	"textures":[
		{
			"sampler":0,
			"source":0
		},
		{
			"sampler":0,
			"source":1
		}
	],
	"images":[
		{
			"mimeType":"image/jpeg",
			"name":"Poliigon_BoucleFabricBubbly_7827_BaseColor",
			"uri":"Poliigon_BoucleFabricBubbly_7827_BaseColor.jpg"
		},
		{
			"mimeType":"image/png",
			"name":"Poliigon_BoucleFabricBubbly_7827_Normal-Poliigon_BoucleFabricBubbly_7827_Roughness",
			"uri":"Poliigon_BoucleFabricBubbly_7827_Normal-Poliigon_BoucleFabricBubbly_7827_Roughness.png"
		}
	],
	"accessors":[
		{
			"bufferView":0,
			"componentType":5126,
			"count":4863,
			"max":[
				0.11907707154750824,
				0,
				0.11908411979675293
			],
			"min":[
				-0.11907701194286346,
				0,
				-0.11908431351184845
			],
			"type":"VEC3"
		},
		{
			"bufferView":1,
			"componentType":5126,
			"count":4863,
			"type":"VEC3"
		},
		{
			"bufferView":2,
			"componentType":5126,
			"count":4863,
			"type":"VEC2"
		},
		{
			"bufferView":3,
			"componentType":5123,
			"count":28314,
			"type":"SCALAR"
		}
	],
	"bufferViews":[
		{
			"buffer":0,
			"byteLength":58356,
			"byteOffset":0,
			"target":34962
		},
		{
			"buffer":0,
			"byteLength":58356,
			"byteOffset":58356,
			"target":34962
		},
		{
			"buffer":0,
			"byteLength":38904,
			"byteOffset":116712,
			"target":34962
		},
		{
			"buffer":0,
			"byteLength":56628,
			"byteOffset":155616,
			"target":34963
		}
	],
	"samplers":[
		{
			"magFilter":9729,
			"minFilter":9987
		}
	],
	"buffers":[
		{
			"byteLength":212244,
			"uri":"scene.bin"
		}
	]
}
