{
	"asset":{
		"generator":"Khronos glTF Blender I/O v4.2.57",
		"version":"2.0"
	},
	"scene":0,
	"scenes":[
		{
			"name":"Scene",
			"nodes":[
				0,
				1,
				2,
				3,
				4,
				5
			]
		}
	],
	"nodes":[
		{
			"mesh":0,
			"name":"base",
			"rotation":[
				0.12278777360916138,
				0.6963642835617065,
				-0.12278780341148376,
				0.6963642835617065
			],
			"translation":[
				-0.002075248397886753,
				0.02133786305785179,
				-0.0012310724705457687
			]
		},
		{
			"mesh":1,
			"name":"creditcard",
			"rotation":[
				0.12278775870800018,
				0.6963642835617065,
				-0.12278779596090317,
				0.6963642835617065
			],
			"scale":[
				0.006200775504112244,
				0.006200775504112244,
				0.006200775504112244
			],
			"translation":[
				-0.017675697803497314,
				0.028194347396492958,
				0.033148087561130524
			]
		},
		{
			"mesh":2,
			"name":"validthru",
			"rotation":[
				0.12278777360916138,
				0.6963642835617065,
				-0.12278780341148376,
				0.6963642835617065
			],
			"scale":[
				0.0012100380845367908,
				0.001210037968121469,
				0.001210037968121469
			],
			"translation":[
				0.011825582943856716,
				0.01749635487794876,
				0.014293096959590912
			]
		},
		{
			"mesh":3,
			"name":"name",
			"rotation":[
				0.12278777360916138,
				0.6963642239570618,
				-0.12278780341148376,
				0.6963642835617065
			],
			"scale":[
				0.004289551172405481,
				0.004289551172405481,
				0.004289551172405481
			],
			"translation":[
				0.01888066902756691,
				0.015322493389248848,
				0.03437671810388565
			]
		},
		{
			"mesh":4,
			"name":"id",
			"rotation":[
				0.12278777360916138,
				0.6963642835617065,
				-0.12278780341148376,
				0.6963642239570618
			],
			"scale":[
				0.0064066448248922825,
				0.006406644359230995,
				0.006406644359230995
			],
			"translation":[
				0.005909815896302462,
				0.020313847810029984,
				0.034522656351327896
			]
		},
		{
			"mesh":5,
			"name":"date",
			"rotation":[
				0.12278777360916138,
				0.6963642239570618,
				-0.12278780341148376,
				0.6963642835617065
			],
			"scale":[
				0.003886415855959058,
				0.003886415623128414,
				0.003886415623128414
			],
			"translation":[
				0.013239666819572449,
				0.017408763989806175,
				0.009634861722588539
			]
		}
	],
	"materials":[
		{
			"doubleSided":true,
			"name":"Card",
			"pbrMetallicRoughness":{
				"baseColorFactor":[
					0.0024279262870550156,
					0.0481717512011528,
					0.37626227736473083,
					1
				],
				"roughnessFactor":0.2136363685131073
			}
		},
		{
			"doubleSided":true,
			"name":"Gold",
			"pbrMetallicRoughness":{
				"baseColorFactor":[
					0.8898804187774658,
					0.6433041095733643,
					0.0023303607013076544,
					1
				],
				"roughnessFactor":0.4363636374473572
			}
		},
		{
			"doubleSided":true,
			"name":"WorldMap",
			"pbrMetallicRoughness":{
				"baseColorTexture":{
					"index":0
				},
				"metallicFactor":0,
				"roughnessFactor":0.5
			}
		}
	],
	"meshes":[
		{
			"name":"Plane",
			"primitives":[
				{
					"attributes":{
						"POSITION":0,
						"NORMAL":1,
						"TEXCOORD_0":2
					},
					"indices":3,
					"material":0
				},
				{
					"attributes":{
						"POSITION":4,
						"NORMAL":5,
						"TEXCOORD_0":6
					},
					"indices":7,
					"material":1
				},
				{
					"attributes":{
						"POSITION":8,
						"NORMAL":9,
						"TEXCOORD_0":10
					},
					"indices":11,
					"material":2
				}
			]
		},
		{
			"name":"Text.002",
			"primitives":[
				{
					"attributes":{
						"POSITION":12,
						"NORMAL":13,
						"TEXCOORD_0":14
					},
					"indices":15
				}
			]
		},
		{
			"name":"Text.003",
			"primitives":[
				{
					"attributes":{
						"POSITION":16,
						"NORMAL":17,
						"TEXCOORD_0":18
					},
					"indices":19
				}
			]
		},
		{
			"name":"Text.004",
			"primitives":[
				{
					"attributes":{
						"POSITION":20,
						"NORMAL":21,
						"TEXCOORD_0":22
					},
					"indices":23,
					"material":1
				}
			]
		},
		{
			"name":"Text.001",
			"primitives":[
				{
					"attributes":{
						"POSITION":24,
						"NORMAL":25,
						"TEXCOORD_0":26
					},
					"indices":27,
					"material":1
				}
			]
		},
		{
			"name":"Text.002",
			"primitives":[
				{
					"attributes":{
						"POSITION":28,
						"NORMAL":29,
						"TEXCOORD_0":30
					},
					"indices":31,
					"material":1
				}
			]
		}
	],
	"textures":[
		{
			"sampler":0,
			"source":0
		}
	],
	"images":[
		{
			"mimeType":"image/jpeg",
			"name":"map",
			"uri":"map.jpg"
		}
	],
	"accessors":[
		{
			"bufferView":0,
			"componentType":5126,
			"count":176,
			"max":[
				0.042800068855285645,
				0.0012892495142295957,
				0.02698993682861328
			],
			"min":[
				-0.042799949645996094,
				-0.0009999996982514858,
				-0.026990056037902832
			],
			"type":"VEC3"
		},
		{
			"bufferView":1,
			"componentType":5126,
			"count":176,
			"type":"VEC3"
		},
		{
			"bufferView":2,
			"componentType":5126,
			"count":176,
			"type":"VEC2"
		},
		{
			"bufferView":3,
			"componentType":5123,
			"count":270,
			"type":"SCALAR"
		},
		{
			"bufferView":4,
			"componentType":5126,
			"count":341,
			"max":[
				-0.012666589580476284,
				0.0012892495142295957,
				0.0009881475707516074
			],
			"min":[
				-0.03310078755021095,
				0.0009999992325901985,
				-0.011551366187632084
			],
			"type":"VEC3"
		},
		{
			"bufferView":5,
			"componentType":5126,
			"count":341,
			"type":"VEC3"
		},
		{
			"bufferView":6,
			"componentType":5126,
			"count":341,
			"type":"VEC2"
		},
		{
			"bufferView":7,
			"componentType":5123,
			"count":675,
			"type":"SCALAR"
		},
		{
			"bufferView":8,
			"componentType":5126,
			"count":179,
			"max":[
				0.042800068855285645,
				0.0010000001639127731,
				0.02698993682861328
			],
			"min":[
				-0.042799949645996094,
				-0.0009999996982514858,
				-0.026990056037902832
			],
			"type":"VEC3"
		},
		{
			"bufferView":9,
			"componentType":5126,
			"count":179,
			"type":"VEC3"
		},
		{
			"bufferView":10,
			"componentType":5126,
			"count":179,
			"type":"VEC2"
		},
		{
			"bufferView":11,
			"componentType":5123,
			"count":513,
			"type":"SCALAR"
		},
		{
			"bufferView":12,
			"componentType":5126,
			"count":1089,
			"max":[
				4.233698844909668,
				0,
				0.011578305624425411
			],
			"min":[
				0.027422303333878517,
				0,
				-0.45978060364723206
			],
			"type":"VEC3"
		},
		{
			"bufferView":13,
			"componentType":5126,
			"count":1089,
			"type":"VEC3"
		},
		{
			"bufferView":14,
			"componentType":5126,
			"count":1089,
			"type":"VEC2"
		},
		{
			"bufferView":15,
			"componentType":5123,
			"count":3219,
			"type":"SCALAR"
		},
		{
			"bufferView":16,
			"componentType":5126,
			"count":274,
			"max":[
				2.7150001525878906,
				0,
				1.0089999437332153
			],
			"min":[
				0,
				0,
				-0.6860000491142273
			],
			"type":"VEC3"
		},
		{
			"bufferView":17,
			"componentType":5126,
			"count":274,
			"type":"VEC3"
		},
		{
			"bufferView":18,
			"componentType":5126,
			"count":274,
			"type":"VEC2"
		},
		{
			"bufferView":19,
			"componentType":5123,
			"count":786,
			"type":"SCALAR"
		},
		{
			"bufferView":20,
			"componentType":5126,
			"count":6167,
			"max":[
				7.110298156738281,
				0.11999999731779099,
				0.01310176681727171
			],
			"min":[
				0.053321145474910736,
				-0.11999999731779099,
				-0.45886653661727905
			],
			"type":"VEC3"
		},
		{
			"bufferView":21,
			"componentType":5126,
			"count":6167,
			"type":"VEC3"
		},
		{
			"bufferView":22,
			"componentType":5126,
			"count":6167,
			"type":"VEC2"
		},
		{
			"bufferView":23,
			"componentType":5123,
			"count":12144,
			"type":"SCALAR"
		},
		{
			"bufferView":24,
			"componentType":5126,
			"count":20239,
			"max":[
				11.00566291809082,
				5.4507261666003615e-05,
				0
			],
			"min":[
				0.11798017472028732,
				-0.12000007182359695,
				-0.6281264424324036
			],
			"type":"VEC3"
		},
		{
			"bufferView":25,
			"componentType":5126,
			"count":20239,
			"type":"VEC3"
		},
		{
			"bufferView":26,
			"componentType":5126,
			"count":20239,
			"type":"VEC2"
		},
		{
			"bufferView":27,
			"componentType":5123,
			"count":37668,
			"type":"SCALAR"
		},
		{
			"bufferView":28,
			"componentType":5126,
			"count":4548,
			"max":[
				2.8107597827911377,
				0,
				0.0004719207063317299
			],
			"min":[
				0.09579990059137344,
				-0.11999999731779099,
				-0.6281264424324036
			],
			"type":"VEC3"
		},
		{
			"bufferView":29,
			"componentType":5126,
			"count":4548,
			"type":"VEC3"
		},
		{
			"bufferView":30,
			"componentType":5126,
			"count":4548,
			"type":"VEC2"
		},
		{
			"bufferView":31,
			"componentType":5123,
			"count":9036,
			"type":"SCALAR"
		}
	],
	"bufferViews":[
		{
			"buffer":0,
			"byteLength":2112,
			"byteOffset":0,
			"target":34962
		},
		{
			"buffer":0,
			"byteLength":2112,
			"byteOffset":2112,
			"target":34962
		},
		{
			"buffer":0,
			"byteLength":1408,
			"byteOffset":4224,
			"target":34962
		},
		{
			"buffer":0,
			"byteLength":540,
			"byteOffset":5632,
			"target":34963
		},
		{
			"buffer":0,
			"byteLength":4092,
			"byteOffset":6172,
			"target":34962
		},
		{
			"buffer":0,
			"byteLength":4092,
			"byteOffset":10264,
			"target":34962
		},
		{
			"buffer":0,
			"byteLength":2728,
			"byteOffset":14356,
			"target":34962
		},
		{
			"buffer":0,
			"byteLength":1350,
			"byteOffset":17084,
			"target":34963
		},
		{
			"buffer":0,
			"byteLength":2148,
			"byteOffset":18436,
			"target":34962
		},
		{
			"buffer":0,
			"byteLength":2148,
			"byteOffset":20584,
			"target":34962
		},
		{
			"buffer":0,
			"byteLength":1432,
			"byteOffset":22732,
			"target":34962
		},
		{
			"buffer":0,
			"byteLength":1026,
			"byteOffset":24164,
			"target":34963
		},
		{
			"buffer":0,
			"byteLength":13068,
			"byteOffset":25192,
			"target":34962
		},
		{
			"buffer":0,
			"byteLength":13068,
			"byteOffset":38260,
			"target":34962
		},
		{
			"buffer":0,
			"byteLength":8712,
			"byteOffset":51328,
			"target":34962
		},
		{
			"buffer":0,
			"byteLength":6438,
			"byteOffset":60040,
			"target":34963
		},
		{
			"buffer":0,
			"byteLength":3288,
			"byteOffset":66480,
			"target":34962
		},
		{
			"buffer":0,
			"byteLength":3288,
			"byteOffset":69768,
			"target":34962
		},
		{
			"buffer":0,
			"byteLength":2192,
			"byteOffset":73056,
			"target":34962
		},
		{
			"buffer":0,
			"byteLength":1572,
			"byteOffset":75248,
			"target":34963
		},
		{
			"buffer":0,
			"byteLength":74004,
			"byteOffset":76820,
			"target":34962
		},
		{
			"buffer":0,
			"byteLength":74004,
			"byteOffset":150824,
			"target":34962
		},
		{
			"buffer":0,
			"byteLength":49336,
			"byteOffset":224828,
			"target":34962
		},
		{
			"buffer":0,
			"byteLength":24288,
			"byteOffset":274164,
			"target":34963
		},
		{
			"buffer":0,
			"byteLength":242868,
			"byteOffset":298452,
			"target":34962
		},
		{
			"buffer":0,
			"byteLength":242868,
			"byteOffset":541320,
			"target":34962
		},
		{
			"buffer":0,
			"byteLength":161912,
			"byteOffset":784188,
			"target":34962
		},
		{
			"buffer":0,
			"byteLength":75336,
			"byteOffset":946100,
			"target":34963
		},
		{
			"buffer":0,
			"byteLength":54576,
			"byteOffset":1021436,
			"target":34962
		},
		{
			"buffer":0,
			"byteLength":54576,
			"byteOffset":1076012,
			"target":34962
		},
		{
			"buffer":0,
			"byteLength":36384,
			"byteOffset":1130588,
			"target":34962
		},
		{
			"buffer":0,
			"byteLength":18072,
			"byteOffset":1166972,
			"target":34963
		}
	],
	"samplers":[
		{
			"magFilter":9729,
			"minFilter":9987
		}
	],
	"buffers":[
		{
			"byteLength":1185044,
			"uri":"scene.bin"
		}
	]
}
