{
	"asset":{
		"generator":"Khronos glTF Blender I/O v4.2.57",
		"version":"2.0"
	},
	"extensionsUsed":[
		"KHR_materials_transmission",
		"KHR_materials_ior"
	],
	"scene":0,
	"scenes":[
		{
			"name":"Scene",
			"nodes":[
				0,
				1
			]
		}
	],
	"nodes":[
		{
			"mesh":0,
			"name":"jar-base",
			"scale":[
				0.06872233003377914,
				0.06872233003377914,
				0.06872233003377914
			]
		},
		{
			"mesh":1,
			"name":"jar-cap",
			"scale":[
				0.06096253544092178,
				0.06096253544092178,
				0.06096253544092178
			],
			"translation":[
				0,
				0.16960136592388153,
				0
			]
		}
	],
	"materials":[
		{
			"doubleSided":true,
			"extensions":{
				"KHR_materials_transmission":{
					"transmissionFactor":1
				},
				"KHR_materials_ior":{
					"ior":1.4900000095367432
				}
			},
			"name":"clearglass",
			"pbrMetallicRoughness":{
				"baseColorFactor":[
					0.800000011920929,
					0.800000011920929,
					0.800000011920929,
					1
				],
				"metallicFactor":0,
				"roughnessFactor":0.018181823194026947
			}
		},
		{
			"doubleSided":true,
			"name":"goldcap",
			"pbrMetallicRoughness":{
				"baseColorFactor":[
					0.8150372505187988,
					0.3822481632232666,
					0.15909293293952942,
					1
				],
				"metallicFactor":0.6086956262588501,
				"roughnessFactor":0
			}
		}
	],
	"meshes":[
		{
			"name":"Circle",
			"primitives":[
				{
					"attributes":{
						"POSITION":0,
						"NORMAL":1,
						"TEXCOORD_0":2
					},
					"indices":3,
					"material":0
				}
			]
		},
		{
			"name":"Circle.001",
			"primitives":[
				{
					"attributes":{
						"POSITION":4,
						"NORMAL":5,
						"TEXCOORD_0":6
					},
					"indices":7,
					"material":1
				}
			]
		}
	],
	"accessors":[
		{
			"bufferView":0,
			"componentType":5126,
			"count":1536,
			"max":[
				1.058673620223999,
				2.480055809020996,
				1.0586737394332886
			],
			"min":[
				-1.0586737394332886,
				0,
				-1.0586737394332886
			],
			"type":"VEC3"
		},
		{
			"bufferView":1,
			"componentType":5126,
			"count":1536,
			"type":"VEC3"
		},
		{
			"bufferView":2,
			"componentType":5126,
			"count":1536,
			"type":"VEC2"
		},
		{
			"bufferView":3,
			"componentType":5123,
			"count":9204,
			"type":"SCALAR"
		},
		{
			"bufferView":4,
			"componentType":5126,
			"count":1760,
			"max":[
				1,
				0.13844434916973114,
				1
			],
			"min":[
				-1,
				0,
				-1
			],
			"type":"VEC3"
		},
		{
			"bufferView":5,
			"componentType":5126,
			"count":1760,
			"type":"VEC3"
		},
		{
			"bufferView":6,
			"componentType":5126,
			"count":1760,
			"type":"VEC2"
		},
		{
			"bufferView":7,
			"componentType":5123,
			"count":2778,
			"type":"SCALAR"
		}
	],
	"bufferViews":[
		{
			"buffer":0,
			"byteLength":18432,
			"byteOffset":0,
			"target":34962
		},
		{
			"buffer":0,
			"byteLength":18432,
			"byteOffset":18432,
			"target":34962
		},
		{
			"buffer":0,
			"byteLength":12288,
			"byteOffset":36864,
			"target":34962
		},
		{
			"buffer":0,
			"byteLength":18408,
			"byteOffset":49152,
			"target":34963
		},
		{
			"buffer":0,
			"byteLength":21120,
			"byteOffset":67560,
			"target":34962
		},
		{
			"buffer":0,
			"byteLength":21120,
			"byteOffset":88680,
			"target":34962
		},
		{
			"buffer":0,
			"byteLength":14080,
			"byteOffset":109800,
			"target":34962
		},
		{
			"buffer":0,
			"byteLength":5556,
			"byteOffset":123880,
			"target":34963
		}
	],
	"buffers":[
		{
			"byteLength":129436,
			"uri":"scene.bin"
		}
	]
}
