{
	"asset":{
		"generator":"Khronos glTF Blender I/O v4.2.57",
		"version":"2.0"
	},
	"extensionsUsed":[
		"KHR_materials_transmission",
		"KHR_materials_ior"
	],
	"scene":0,
	"scenes":[
		{
			"name":"Scene",
			"nodes":[
				0,
				1,
				2
			]
		}
	],
	"nodes":[
		{
			"mesh":0,
			"name":"mixer",
			"rotation":[
				0.9875943064689636,
				0,
				0,
				0.15702706575393677
			],
			"scale":[
				0.005070211831480265,
				0.005070211831480265,
				0.005070211831480265
			],
			"translation":[
				0,
				0.014826297760009766,
				0.05052688345313072
			]
		},
		{
			"mesh":1,
			"name":"jar-base",
			"scale":[
				0.02899100072681904,
				0.02899100072681904,
				0.02899100072681904
			],
			"translation":[
				0,
				0.0007063848897814751,
				0
			]
		},
		{
			"mesh":2,
			"name":"jar-cap",
			"scale":[
				0.0257174763828516,
				0.0257174763828516,
				0.0257174763828516
			],
			"translation":[
				0,
				0.07225392013788223,
				0
			]
		}
	],
	"materials":[
		{
			"doubleSided":true,
			"name":"wood",
			"pbrMetallicRoughness":{
				"baseColorTexture":{
					"index":0
				}
			}
		},
		{
			"doubleSided":true,
			"extensions":{
				"KHR_materials_transmission":{
					"transmissionFactor":1
				},
				"KHR_materials_ior":{
					"ior":1.4900000095367432
				}
			},
			"name":"clearglass",
			"pbrMetallicRoughness":{
				"baseColorFactor":[
					0.8000229597091675,
					0.4703556001186371,
					0.024711979553103447,
					1
				],
				"metallicFactor":0,
				"roughnessFactor":0.018181823194026947
			}
		},
		{
			"doubleSided":true,
			"name":"goldcap",
			"pbrMetallicRoughness":{
				"baseColorFactor":[
					0.8150372505187988,
					0.3822481632232666,
					0.15909293293952942,
					1
				],
				"metallicFactor":0.6086956262588501,
				"roughnessFactor":0
			}
		}
	],
	"meshes":[
		{
			"name":"Circle",
			"primitives":[
				{
					"attributes":{
						"POSITION":0,
						"NORMAL":1,
						"TEXCOORD_0":2
					},
					"indices":3,
					"material":0
				}
			]
		},
		{
			"name":"Circle.001",
			"primitives":[
				{
					"attributes":{
						"POSITION":4,
						"NORMAL":5,
						"TEXCOORD_0":6
					},
					"indices":7,
					"material":1
				}
			]
		},
		{
			"name":"Circle.002",
			"primitives":[
				{
					"attributes":{
						"POSITION":8,
						"NORMAL":9,
						"TEXCOORD_0":10
					},
					"indices":11,
					"material":2
				}
			]
		}
	],
	"textures":[
		{
			"sampler":0,
			"source":0
		}
	],
	"images":[
		{
			"mimeType":"image/jpeg",
			"name":"Poliigon_WoodVeneerOak_7760_BaseColor",
			"uri":"Poliigon_WoodVeneerOak_7760_BaseColor.jpg"
		}
	],
	"accessors":[
		{
			"bufferView":0,
			"componentType":5126,
			"count":159432,
			"max":[
				2.9235172271728516,
				2.1145596504211426,
				2.9238100051879883
			],
			"min":[
				-2.9239261150360107,
				-13.645841598510742,
				-2.923633337020874
			],
			"type":"VEC3"
		},
		{
			"bufferView":1,
			"componentType":5126,
			"count":159432,
			"type":"VEC3"
		},
		{
			"bufferView":2,
			"componentType":5126,
			"count":159432,
			"type":"VEC2"
		},
		{
			"bufferView":3,
			"componentType":5125,
			"count":239616,
			"type":"SCALAR"
		},
		{
			"bufferView":4,
			"componentType":5126,
			"count":1536,
			"max":[
				1.058673620223999,
				2.480055809020996,
				1.0586737394332886
			],
			"min":[
				-1.0586737394332886,
				0,
				-1.0586737394332886
			],
			"type":"VEC3"
		},
		{
			"bufferView":5,
			"componentType":5126,
			"count":1536,
			"type":"VEC3"
		},
		{
			"bufferView":6,
			"componentType":5126,
			"count":1536,
			"type":"VEC2"
		},
		{
			"bufferView":7,
			"componentType":5123,
			"count":9204,
			"type":"SCALAR"
		},
		{
			"bufferView":8,
			"componentType":5126,
			"count":1772,
			"max":[
				1,
				0.13844434916973114,
				1
			],
			"min":[
				-1,
				0,
				-1
			],
			"type":"VEC3"
		},
		{
			"bufferView":9,
			"componentType":5126,
			"count":1772,
			"type":"VEC3"
		},
		{
			"bufferView":10,
			"componentType":5126,
			"count":1772,
			"type":"VEC2"
		},
		{
			"bufferView":11,
			"componentType":5123,
			"count":2778,
			"type":"SCALAR"
		}
	],
	"bufferViews":[
		{
			"buffer":0,
			"byteLength":1913184,
			"byteOffset":0,
			"target":34962
		},
		{
			"buffer":0,
			"byteLength":1913184,
			"byteOffset":1913184,
			"target":34962
		},
		{
			"buffer":0,
			"byteLength":1275456,
			"byteOffset":3826368,
			"target":34962
		},
		{
			"buffer":0,
			"byteLength":958464,
			"byteOffset":5101824,
			"target":34963
		},
		{
			"buffer":0,
			"byteLength":18432,
			"byteOffset":6060288,
			"target":34962
		},
		{
			"buffer":0,
			"byteLength":18432,
			"byteOffset":6078720,
			"target":34962
		},
		{
			"buffer":0,
			"byteLength":12288,
			"byteOffset":6097152,
			"target":34962
		},
		{
			"buffer":0,
			"byteLength":18408,
			"byteOffset":6109440,
			"target":34963
		},
		{
			"buffer":0,
			"byteLength":21264,
			"byteOffset":6127848,
			"target":34962
		},
		{
			"buffer":0,
			"byteLength":21264,
			"byteOffset":6149112,
			"target":34962
		},
		{
			"buffer":0,
			"byteLength":14176,
			"byteOffset":6170376,
			"target":34962
		},
		{
			"buffer":0,
			"byteLength":5556,
			"byteOffset":6184552,
			"target":34963
		}
	],
	"samplers":[
		{
			"magFilter":9729,
			"minFilter":9987
		}
	],
	"buffers":[
		{
			"byteLength":6190108,
			"uri":"scene.bin"
		}
	]
}
