{
	"asset":{
		"generator":"Khronos glTF Blender I/O v4.2.57",
		"version":"2.0"
	},
	"scene":0,
	"scenes":[
		{
			"name":"Scene",
			"nodes":[
				0,
				1
			]
		}
	],
	"nodes":[
		{
			"mesh":0,
			"name":"base",
			"translation":[
				0,
				0.05514741688966751,
				0
			]
		},
		{
			"mesh":1,
			"name":"handle",
			"rotation":[
				-0.5000001192092896,
				0.5,
				-0.4999999701976776,
				0.5000000596046448
			],
			"scale":[
				0.005040355492383242,
				0.005040355492383242,
				0.005040355492383242
			],
			"translation":[
				0,
				0.08177770674228668,
				-0.04838166385889053
			]
		}
	],
	"materials":[
		{
			"doubleSided":true,
			"name":"white",
			"pbrMetallicRoughness":{
				"baseColorFactor":[
					0.800000011920929,
					0.800000011920929,
					0.800000011920929,
					1
				],
				"metallicFactor":0.7272727489471436,
				"roughnessFactor":0.6318181753158569
			}
		},
		{
			"doubleSided":true,
			"name":"Material",
			"pbrMetallicRoughness":{
				"baseColorFactor":[
					0,
					0,
					0,
					1
				],
				"metallicFactor":727,
				"roughnessFactor":632
			}
		}
	],
	"meshes":[
		{
			"name":"Cube",
			"primitives":[
				{
					"attributes":{
						"POSITION":0,
						"NORMAL":1,
						"TEXCOORD_0":2
					},
					"indices":3,
					"material":0
				},
				{
					"attributes":{
						"POSITION":4,
						"NORMAL":5,
						"TEXCOORD_0":6
					},
					"indices":7,
					"material":1
				}
			]
		},
		{
			"name":"Circle",
			"primitives":[
				{
					"attributes":{
						"POSITION":8,
						"NORMAL":9,
						"TEXCOORD_0":10
					},
					"indices":11,
					"material":0
				}
			]
		}
	],
	"accessors":[
		{
			"bufferView":0,
			"componentType":5126,
			"count":26496,
			"max":[
				0.039897311478853226,
				0.04867285117506981,
				0.04900180920958519
			],
			"min":[
				-0.039897311478853226,
				-0.048694465309381485,
				-0.04900180920958519
			],
			"type":"VEC3"
		},
		{
			"bufferView":1,
			"componentType":5126,
			"count":26496,
			"type":"VEC3"
		},
		{
			"bufferView":2,
			"componentType":5126,
			"count":26496,
			"type":"VEC2"
		},
		{
			"bufferView":3,
			"componentType":5123,
			"count":39744,
			"type":"SCALAR"
		},
		{
			"bufferView":4,
			"componentType":5126,
			"count":704,
			"max":[
				0.039727117866277695,
				0.04556060582399368,
				0.04836632311344147
			],
			"min":[
				-0.039727114140987396,
				0.040109749883413315,
				-0.04836632311344147
			],
			"type":"VEC3"
		},
		{
			"bufferView":5,
			"componentType":5126,
			"count":704,
			"type":"VEC3"
		},
		{
			"bufferView":6,
			"componentType":5126,
			"count":704,
			"type":"VEC2"
		},
		{
			"bufferView":7,
			"componentType":5123,
			"count":1056,
			"type":"SCALAR"
		},
		{
			"bufferView":8,
			"componentType":5126,
			"count":36864,
			"max":[
				9.976118087768555,
				6.932191371917725,
				0.9935953617095947
			],
			"min":[
				-0.7706759572029114,
				-0.20837171375751495,
				-0.9935967326164246
			],
			"type":"VEC3"
		},
		{
			"bufferView":9,
			"componentType":5126,
			"count":36864,
			"type":"VEC3"
		},
		{
			"bufferView":10,
			"componentType":5126,
			"count":36864,
			"type":"VEC2"
		},
		{
			"bufferView":11,
			"componentType":5123,
			"count":55296,
			"type":"SCALAR"
		}
	],
	"bufferViews":[
		{
			"buffer":0,
			"byteLength":317952,
			"byteOffset":0,
			"target":34962
		},
		{
			"buffer":0,
			"byteLength":317952,
			"byteOffset":317952,
			"target":34962
		},
		{
			"buffer":0,
			"byteLength":211968,
			"byteOffset":635904,
			"target":34962
		},
		{
			"buffer":0,
			"byteLength":79488,
			"byteOffset":847872,
			"target":34963
		},
		{
			"buffer":0,
			"byteLength":8448,
			"byteOffset":927360,
			"target":34962
		},
		{
			"buffer":0,
			"byteLength":8448,
			"byteOffset":935808,
			"target":34962
		},
		{
			"buffer":0,
			"byteLength":5632,
			"byteOffset":944256,
			"target":34962
		},
		{
			"buffer":0,
			"byteLength":2112,
			"byteOffset":949888,
			"target":34963
		},
		{
			"buffer":0,
			"byteLength":442368,
			"byteOffset":952000,
			"target":34962
		},
		{
			"buffer":0,
			"byteLength":442368,
			"byteOffset":1394368,
			"target":34962
		},
		{
			"buffer":0,
			"byteLength":294912,
			"byteOffset":1836736,
			"target":34962
		},
		{
			"buffer":0,
			"byteLength":110592,
			"byteOffset":2131648,
			"target":34963
		}
	],
	"buffers":[
		{
			"byteLength":2242240,
			"uri":"scene.bin"
		}
	]
}
