{
	"asset":{
		"generator":"Khronos glTF Blender I/O v4.2.57",
		"version":"2.0"
	},
	"scene":0,
	"scenes":[
		{
			"name":"Scene",
			"nodes":[
				0,
				1,
				2,
				3,
				4,
				5,
				6,
				7,
				8,
				9,
				10,
				11,
				12,
				13,
				14
			]
		}
	],
	"nodes":[
		{
			"mesh":0,
			"name":"TV Base",
			"translation":[
				0.023529142141342163,
				0.07118949294090271,
				-0.0004566032439470291
			]
		},
		{
			"mesh":1,
			"name":"Cylinder",
			"rotation":[
				-0.7071068286895752,
				0,
				0,
				0.7071068286895752
			],
			"scale":[
				0.0050844489596784115,
				0.0050844489596784115,
				0.0050844489596784115
			],
			"translation":[
				0.07773900032043457,
				0.049024611711502075,
				0.07334153354167938
			]
		},
		{
			"mesh":1,
			"name":"Cylinder.001",
			"rotation":[
				-0.7071068286895752,
				0,
				0,
				0.7071068286895752
			],
			"scale":[
				0.0050844489596784115,
				0.0050844489596784115,
				0.0050844489596784115
			],
			"translation":[
				0.07773900032043457,
				0.049024611711502075,
				0.05872605741024017
			]
		},
		{
			"mesh":1,
			"name":"Cylinder.002",
			"rotation":[
				-0.7071068286895752,
				0,
				0,
				0.7071068286895752
			],
			"scale":[
				0.0050844489596784115,
				0.0050844489596784115,
				0.0050844489596784115
			],
			"translation":[
				0.07773900032043457,
				0.049024611711502075,
				0.04392077028751373
			]
		},
		{
			"mesh":1,
			"name":"Cylinder.003",
			"rotation":[
				-0.7071068286895752,
				0,
				0,
				0.7071068286895752
			],
			"scale":[
				0.0050844489596784115,
				0.0050844489596784115,
				0.0050844489596784115
			],
			"translation":[
				0.07773900032043457,
				0.049024611711502075,
				0.02943437173962593
			]
		},
		{
			"mesh":1,
			"name":"Cylinder.004",
			"rotation":[
				-0.7071068286895752,
				0,
				0,
				0.7071068286895752
			],
			"scale":[
				0.0050844489596784115,
				0.0050844489596784115,
				0.0050844489596784115
			],
			"translation":[
				0.07773900032043457,
				0.049024611711502075,
				0.01508463453501463
			]
		},
		{
			"mesh":1,
			"name":"Cylinder.005",
			"rotation":[
				-0.7071068286895752,
				0,
				0,
				0.7071068286895752
			],
			"scale":[
				0.0050844489596784115,
				0.0050844489596784115,
				0.0050844489596784115
			],
			"translation":[
				0.07773900032043457,
				0.049024611711502075,
				0.0003249048604629934
			]
		},
		{
			"mesh":2,
			"name":"SZU text",
			"scale":[
				0.001038155984133482,
				0.001038155984133482,
				0.001038155984133482
			],
			"translation":[
				0.08085015416145325,
				0.06775475293397903,
				0.025819119065999985
			]
		},
		{
			"mesh":3,
			"name":"Text",
			"rotation":[
				0.5,
				0.5,
				-0.5,
				0.5000000596046448
			],
			"scale":[
				0.0027902235742658377,
				0.0027902235742658377,
				0.0027902231086045504
			],
			"translation":[
				0.08332303166389465,
				0.043259523808956146,
				0.07356424629688263
			]
		},
		{
			"mesh":4,
			"name":"Text.001",
			"rotation":[
				0.5,
				0.5,
				-0.5,
				0.5000000596046448
			],
			"scale":[
				0.0027902235742658377,
				0.0027902235742658377,
				0.0027902231086045504
			],
			"translation":[
				0.0833289623260498,
				0.04324696213006973,
				0.05894828960299492
			]
		},
		{
			"mesh":5,
			"name":"Text.002",
			"rotation":[
				0.5,
				0.5,
				-0.5,
				0.5000000596046448
			],
			"scale":[
				0.0027902235742658377,
				0.0027902235742658377,
				0.0027902231086045504
			],
			"translation":[
				0.08318379521369934,
				0.043251149356365204,
				0.04516506940126419
			]
		},
		{
			"mesh":6,
			"name":"Text.003",
			"rotation":[
				0.5,
				0.5,
				-0.5,
				0.5000000596046448
			],
			"scale":[
				0.0027902235742658377,
				0.0027902235742658377,
				0.0027902231086045504
			],
			"translation":[
				0.08342549204826355,
				0.04312070459127426,
				0.0299220010638237
			]
		},
		{
			"mesh":7,
			"name":"Text.004",
			"rotation":[
				0.5,
				0.5,
				-0.5,
				0.5000000596046448
			],
			"scale":[
				0.0027902235742658377,
				0.0027902235742658377,
				0.0027902231086045504
			],
			"translation":[
				0.08316010236740112,
				0.043129079043865204,
				0.015642553567886353
			]
		},
		{
			"mesh":8,
			"name":"Text.005",
			"rotation":[
				0.5,
				0.5,
				-0.5,
				0.5000000596046448
			],
			"scale":[
				0.0027902235742658377,
				0.0027902235742658377,
				0.0027902231086045504
			],
			"translation":[
				0.08340179920196533,
				0.043129079043865204,
				0.0011821665102615952
			]
		},
		{
			"mesh":9,
			"name":"Anthena",
			"rotation":[
				0,
				-0.1931600272655487,
				0,
				0.9811673760414124
			],
			"scale":[
				0.002695553470402956,
				0.002695553470402956,
				0.002695553470402956
			],
			"translation":[
				-0.004113063216209412,
				0.32991787791252136,
				0.022862648591399193
			]
		}
	],
	"materials":[
		{
			"doubleSided":true,
			"name":"plasticWhite",
			"pbrMetallicRoughness":{
				"baseColorFactor":[
					0.800000011920929,
					0.800000011920929,
					0.800000011920929,
					1
				],
				"metallicFactor":0,
				"roughnessFactor":0.5
			}
		},
		{
			"doubleSided":true,
			"name":"plasticBlack",
			"pbrMetallicRoughness":{
				"baseColorTexture":{
					"index":0
				},
				"metallicRoughnessTexture":{
					"index":1
				}
			}
		},
		{
			"doubleSided":true,
			"name":"ledscreenTexture",
			"pbrMetallicRoughness":{
				"baseColorFactor":[
					0.005367393605411053,
					0.03279939666390419,
					0.11488760262727737,
					1
				],
				"metallicFactor":0,
				"roughnessFactor":0.5
			}
		},
		{
			"doubleSided":true,
			"name":"Material",
			"pbrMetallicRoughness":{
				"baseColorFactor":[
					0.9035104513168335,
					0.9035104513168335,
					0.9035104513168335,
					1
				],
				"metallicFactor":0.95652174949646,
				"roughnessFactor":0.4318181872367859
			}
		}
	],
	"meshes":[
		{
			"name":"Plane",
			"primitives":[
				{
					"attributes":{
						"POSITION":0,
						"NORMAL":1,
						"TEXCOORD_0":2
					},
					"indices":3,
					"material":0
				},
				{
					"attributes":{
						"POSITION":4,
						"NORMAL":5,
						"TEXCOORD_0":6
					},
					"indices":7,
					"material":1
				},
				{
					"attributes":{
						"POSITION":8,
						"NORMAL":9,
						"TEXCOORD_0":10
					},
					"indices":11,
					"material":2
				}
			]
		},
		{
			"name":"Cylinder.001",
			"primitives":[
				{
					"attributes":{
						"POSITION":12,
						"NORMAL":13,
						"TEXCOORD_0":14
					},
					"indices":15
				}
			]
		},
		{
			"name":"Cube.003",
			"primitives":[
				{
					"attributes":{
						"POSITION":16,
						"NORMAL":17,
						"TEXCOORD_0":18
					},
					"indices":19,
					"material":3
				}
			]
		},
		{
			"name":"Text",
			"primitives":[
				{
					"attributes":{
						"POSITION":20,
						"NORMAL":21,
						"TEXCOORD_0":22
					},
					"indices":23,
					"material":1
				}
			]
		},
		{
			"name":"Text.001",
			"primitives":[
				{
					"attributes":{
						"POSITION":24,
						"NORMAL":25,
						"TEXCOORD_0":26
					},
					"indices":27,
					"material":1
				}
			]
		},
		{
			"name":"Text.002",
			"primitives":[
				{
					"attributes":{
						"POSITION":28,
						"NORMAL":29,
						"TEXCOORD_0":30
					},
					"indices":31,
					"material":1
				}
			]
		},
		{
			"name":"Text.003",
			"primitives":[
				{
					"attributes":{
						"POSITION":32,
						"NORMAL":33,
						"TEXCOORD_0":34
					},
					"indices":35,
					"material":1
				}
			]
		},
		{
			"name":"Text.004",
			"primitives":[
				{
					"attributes":{
						"POSITION":36,
						"NORMAL":37,
						"TEXCOORD_0":38
					},
					"indices":39,
					"material":1
				}
			]
		},
		{
			"name":"Text.005",
			"primitives":[
				{
					"attributes":{
						"POSITION":40,
						"NORMAL":41,
						"TEXCOORD_0":42
					},
					"indices":43,
					"material":1
				}
			]
		},
		{
			"name":"Cylinder",
			"primitives":[
				{
					"attributes":{
						"POSITION":44,
						"NORMAL":45,
						"TEXCOORD_0":46
					},
					"indices":47,
					"material":0
				},
				{
					"attributes":{
						"POSITION":48,
						"NORMAL":49,
						"TEXCOORD_0":50
					},
					"indices":51,
					"material":1
				}
			]
		}
	],
	"textures":[
		{
			"sampler":0,
			"source":0
		},
		{
			"sampler":0,
			"source":1
		}
	],
	"images":[
		{
			"mimeType":"image/jpeg",
			"name":"Poliigon_PlasticMoldDryBlast_7495_BaseColor",
			"uri":"Poliigon_PlasticMoldDryBlast_7495_BaseColor.jpg"
		},
		{
			"mimeType":"image/png",
			"name":"Poliigon_PlasticMoldDryBlast_7495_Metallic-Poliigon_PlasticMoldDryBlast_7495_Roughness",
			"uri":"Poliigon_PlasticMoldDryBlast_7495_Metallic-Poliigon_PlasticMoldDryBlast_7495_Roughness.png"
		}
	],
	"accessors":[
		{
			"bufferView":0,
			"componentType":5126,
			"count":1001,
			"max":[
				0.0589030385017395,
				0.2093288004398346,
				0.1860227733850479
			],
			"min":[
				-0.250876784324646,
				-0.04752175509929657,
				-0.13548459112644196
			],
			"type":"VEC3"
		},
		{
			"bufferView":1,
			"componentType":5126,
			"count":1001,
			"type":"VEC3"
		},
		{
			"bufferView":2,
			"componentType":5126,
			"count":1001,
			"type":"VEC2"
		},
		{
			"bufferView":3,
			"componentType":5123,
			"count":2136,
			"type":"SCALAR"
		},
		{
			"bufferView":4,
			"componentType":5126,
			"count":756,
			"max":[
				0.057537585496902466,
				0.2093288004398346,
				0.1860227733850479
			],
			"min":[
				-0.250876784324646,
				-0.057503923773765564,
				-0.13548459112644196
			],
			"type":"VEC3"
		},
		{
			"bufferView":5,
			"componentType":5126,
			"count":756,
			"type":"VEC3"
		},
		{
			"bufferView":6,
			"componentType":5126,
			"count":756,
			"type":"VEC2"
		},
		{
			"bufferView":7,
			"componentType":5123,
			"count":2058,
			"type":"SCALAR"
		},
		{
			"bufferView":8,
			"componentType":5126,
			"count":12,
			"max":[
				0.057537585496902466,
				0.18234163522720337,
				0.13947337865829468
			],
			"min":[
				0.057537585496902466,
				0.009133100509643555,
				-0.09073200821876526
			],
			"type":"VEC3"
		},
		{
			"bufferView":9,
			"componentType":5126,
			"count":12,
			"type":"VEC3"
		},
		{
			"bufferView":10,
			"componentType":5126,
			"count":12,
			"type":"VEC2"
		},
		{
			"bufferView":11,
			"componentType":5123,
			"count":30,
			"type":"SCALAR"
		},
		{
			"bufferView":12,
			"componentType":5126,
			"count":208,
			"max":[
				0.2722371816635132,
				1,
				0.37896203994750977
			],
			"min":[
				-0.8146606087684631,
				-1,
				-0.38601845502853394
			],
			"type":"VEC3"
		},
		{
			"bufferView":13,
			"componentType":5126,
			"count":208,
			"type":"VEC3"
		},
		{
			"bufferView":14,
			"componentType":5126,
			"count":208,
			"type":"VEC2"
		},
		{
			"bufferView":15,
			"componentType":5123,
			"count":372,
			"type":"SCALAR"
		},
		{
			"bufferView":16,
			"componentType":5126,
			"count":380,
			"max":[
				1.0676251649856567,
				4.372395992279053,
				19.064220428466797
			],
			"min":[
				-1.0582327842712402,
				-5.315846920013428,
				-25.323509216308594
			],
			"type":"VEC3"
		},
		{
			"bufferView":17,
			"componentType":5126,
			"count":380,
			"type":"VEC3"
		},
		{
			"bufferView":18,
			"componentType":5126,
			"count":380,
			"type":"VEC2"
		},
		{
			"bufferView":19,
			"componentType":5123,
			"count":726,
			"type":"SCALAR"
		},
		{
			"bufferView":20,
			"componentType":5126,
			"count":37,
			"max":[
				1.3715002536773682,
				0,
				0.3500000238418579
			],
			"min":[
				-1.371500015258789,
				0,
				-0.3500000238418579
			],
			"type":"VEC3"
		},
		{
			"bufferView":21,
			"componentType":5126,
			"count":37,
			"type":"VEC3"
		},
		{
			"bufferView":22,
			"componentType":5126,
			"count":37,
			"type":"VEC2"
		},
		{
			"bufferView":23,
			"componentType":5123,
			"count":87,
			"type":"SCALAR"
		},
		{
			"bufferView":24,
			"componentType":5126,
			"count":115,
			"max":[
				1.31850004196167,
				0,
				0.34550002217292786
			],
			"min":[
				-1.31850004196167,
				0,
				-0.34550002217292786
			],
			"type":"VEC3"
		},
		{
			"bufferView":25,
			"componentType":5126,
			"count":115,
			"type":"VEC3"
		},
		{
			"bufferView":26,
			"componentType":5126,
			"count":115,
			"type":"VEC2"
		},
		{
			"bufferView":27,
			"componentType":5123,
			"count":321,
			"type":"SCALAR"
		},
		{
			"bufferView":28,
			"componentType":5126,
			"count":11,
			"max":[
				0.44350001215934753,
				0,
				0.3440000116825104
			],
			"min":[
				-0.4435000419616699,
				0,
				-0.34400004148483276
			],
			"type":"VEC3"
		},
		{
			"bufferView":29,
			"componentType":5126,
			"count":11,
			"type":"VEC3"
		},
		{
			"bufferView":30,
			"componentType":5126,
			"count":11,
			"type":"VEC2"
		},
		{
			"bufferView":31,
			"componentType":5123,
			"count":21,
			"type":"SCALAR"
		},
		{
			"bufferView":32,
			"componentType":5126,
			"count":19,
			"max":[
				0.5660000443458557,
				0,
				0.3440000116825104
			],
			"min":[
				-0.5659999847412109,
				0,
				-0.34400004148483276
			],
			"type":"VEC3"
		},
		{
			"bufferView":33,
			"componentType":5126,
			"count":19,
			"type":"VEC3"
		},
		{
			"bufferView":34,
			"componentType":5126,
			"count":19,
			"type":"VEC2"
		},
		{
			"bufferView":35,
			"componentType":5123,
			"count":45,
			"type":"SCALAR"
		},
		{
			"bufferView":36,
			"componentType":5126,
			"count":60,
			"max":[
				0.36149999499320984,
				0,
				0.3410000205039978
			],
			"min":[
				-0.361500084400177,
				0,
				-0.3410000205039978
			],
			"type":"VEC3"
		},
		{
			"bufferView":37,
			"componentType":5126,
			"count":60,
			"type":"VEC3"
		},
		{
			"bufferView":38,
			"componentType":5126,
			"count":60,
			"type":"VEC2"
		},
		{
			"bufferView":39,
			"componentType":5123,
			"count":174,
			"type":"SCALAR"
		},
		{
			"bufferView":40,
			"componentType":5126,
			"count":68,
			"max":[
				0.484000027179718,
				0,
				0.3410000205039978
			],
			"min":[
				-0.484000027179718,
				0,
				-0.3410000205039978
			],
			"type":"VEC3"
		},
		{
			"bufferView":41,
			"componentType":5126,
			"count":68,
			"type":"VEC3"
		},
		{
			"bufferView":42,
			"componentType":5126,
			"count":68,
			"type":"VEC2"
		},
		{
			"bufferView":43,
			"componentType":5123,
			"count":198,
			"type":"SCALAR"
		},
		{
			"bufferView":44,
			"componentType":5126,
			"count":464,
			"max":[
				8.501485824584961,
				22.606557846069336,
				20.02042579650879
			],
			"min":[
				-8.49290943145752,
				-22.187707901000977,
				-20.011348724365234
			],
			"type":"VEC3"
		},
		{
			"bufferView":45,
			"componentType":5126,
			"count":464,
			"type":"VEC3"
		},
		{
			"bufferView":46,
			"componentType":5126,
			"count":464,
			"type":"VEC2"
		},
		{
			"bufferView":47,
			"componentType":5123,
			"count":804,
			"type":"SCALAR"
		},
		{
			"bufferView":48,
			"componentType":5126,
			"count":616,
			"max":[
				8.519068717956543,
				22.77476692199707,
				20.073102951049805
			],
			"min":[
				-8.510494232177734,
				-24.622156143188477,
				-20.064027786254883
			],
			"type":"VEC3"
		},
		{
			"bufferView":49,
			"componentType":5126,
			"count":616,
			"type":"VEC3"
		},
		{
			"bufferView":50,
			"componentType":5126,
			"count":616,
			"type":"VEC2"
		},
		{
			"bufferView":51,
			"componentType":5123,
			"count":960,
			"type":"SCALAR"
		}
	],
	"bufferViews":[
		{
			"buffer":0,
			"byteLength":12012,
			"byteOffset":0,
			"target":34962
		},
		{
			"buffer":0,
			"byteLength":12012,
			"byteOffset":12012,
			"target":34962
		},
		{
			"buffer":0,
			"byteLength":8008,
			"byteOffset":24024,
			"target":34962
		},
		{
			"buffer":0,
			"byteLength":4272,
			"byteOffset":32032,
			"target":34963
		},
		{
			"buffer":0,
			"byteLength":9072,
			"byteOffset":36304,
			"target":34962
		},
		{
			"buffer":0,
			"byteLength":9072,
			"byteOffset":45376,
			"target":34962
		},
		{
			"buffer":0,
			"byteLength":6048,
			"byteOffset":54448,
			"target":34962
		},
		{
			"buffer":0,
			"byteLength":4116,
			"byteOffset":60496,
			"target":34963
		},
		{
			"buffer":0,
			"byteLength":144,
			"byteOffset":64612,
			"target":34962
		},
		{
			"buffer":0,
			"byteLength":144,
			"byteOffset":64756,
			"target":34962
		},
		{
			"buffer":0,
			"byteLength":96,
			"byteOffset":64900,
			"target":34962
		},
		{
			"buffer":0,
			"byteLength":60,
			"byteOffset":64996,
			"target":34963
		},
		{
			"buffer":0,
			"byteLength":2496,
			"byteOffset":65056,
			"target":34962
		},
		{
			"buffer":0,
			"byteLength":2496,
			"byteOffset":67552,
			"target":34962
		},
		{
			"buffer":0,
			"byteLength":1664,
			"byteOffset":70048,
			"target":34962
		},
		{
			"buffer":0,
			"byteLength":744,
			"byteOffset":71712,
			"target":34963
		},
		{
			"buffer":0,
			"byteLength":4560,
			"byteOffset":72456,
			"target":34962
		},
		{
			"buffer":0,
			"byteLength":4560,
			"byteOffset":77016,
			"target":34962
		},
		{
			"buffer":0,
			"byteLength":3040,
			"byteOffset":81576,
			"target":34962
		},
		{
			"buffer":0,
			"byteLength":1452,
			"byteOffset":84616,
			"target":34963
		},
		{
			"buffer":0,
			"byteLength":444,
			"byteOffset":86068,
			"target":34962
		},
		{
			"buffer":0,
			"byteLength":444,
			"byteOffset":86512,
			"target":34962
		},
		{
			"buffer":0,
			"byteLength":296,
			"byteOffset":86956,
			"target":34962
		},
		{
			"buffer":0,
			"byteLength":174,
			"byteOffset":87252,
			"target":34963
		},
		{
			"buffer":0,
			"byteLength":1380,
			"byteOffset":87428,
			"target":34962
		},
		{
			"buffer":0,
			"byteLength":1380,
			"byteOffset":88808,
			"target":34962
		},
		{
			"buffer":0,
			"byteLength":920,
			"byteOffset":90188,
			"target":34962
		},
		{
			"buffer":0,
			"byteLength":642,
			"byteOffset":91108,
			"target":34963
		},
		{
			"buffer":0,
			"byteLength":132,
			"byteOffset":91752,
			"target":34962
		},
		{
			"buffer":0,
			"byteLength":132,
			"byteOffset":91884,
			"target":34962
		},
		{
			"buffer":0,
			"byteLength":88,
			"byteOffset":92016,
			"target":34962
		},
		{
			"buffer":0,
			"byteLength":42,
			"byteOffset":92104,
			"target":34963
		},
		{
			"buffer":0,
			"byteLength":228,
			"byteOffset":92148,
			"target":34962
		},
		{
			"buffer":0,
			"byteLength":228,
			"byteOffset":92376,
			"target":34962
		},
		{
			"buffer":0,
			"byteLength":152,
			"byteOffset":92604,
			"target":34962
		},
		{
			"buffer":0,
			"byteLength":90,
			"byteOffset":92756,
			"target":34963
		},
		{
			"buffer":0,
			"byteLength":720,
			"byteOffset":92848,
			"target":34962
		},
		{
			"buffer":0,
			"byteLength":720,
			"byteOffset":93568,
			"target":34962
		},
		{
			"buffer":0,
			"byteLength":480,
			"byteOffset":94288,
			"target":34962
		},
		{
			"buffer":0,
			"byteLength":348,
			"byteOffset":94768,
			"target":34963
		},
		{
			"buffer":0,
			"byteLength":816,
			"byteOffset":95116,
			"target":34962
		},
		{
			"buffer":0,
			"byteLength":816,
			"byteOffset":95932,
			"target":34962
		},
		{
			"buffer":0,
			"byteLength":544,
			"byteOffset":96748,
			"target":34962
		},
		{
			"buffer":0,
			"byteLength":396,
			"byteOffset":97292,
			"target":34963
		},
		{
			"buffer":0,
			"byteLength":5568,
			"byteOffset":97688,
			"target":34962
		},
		{
			"buffer":0,
			"byteLength":5568,
			"byteOffset":103256,
			"target":34962
		},
		{
			"buffer":0,
			"byteLength":3712,
			"byteOffset":108824,
			"target":34962
		},
		{
			"buffer":0,
			"byteLength":1608,
			"byteOffset":112536,
			"target":34963
		},
		{
			"buffer":0,
			"byteLength":7392,
			"byteOffset":114144,
			"target":34962
		},
		{
			"buffer":0,
			"byteLength":7392,
			"byteOffset":121536,
			"target":34962
		},
		{
			"buffer":0,
			"byteLength":4928,
			"byteOffset":128928,
			"target":34962
		},
		{
			"buffer":0,
			"byteLength":1920,
			"byteOffset":133856,
			"target":34963
		}
	],
	"samplers":[
		{
			"magFilter":9729,
			"minFilter":9987
		}
	],
	"buffers":[
		{
			"byteLength":135776,
			"uri":"scene.bin"
		}
	]
}
