{
	"asset":{
		"generator":"Khronos glTF Blender I/O v4.2.57",
		"version":"2.0"
	},
	"scene":0,
	"scenes":[
		{
			"name":"Scene",
			"nodes":[
				0
			]
		}
	],
	"nodes":[
		{
			"mesh":0,
			"name":"base",
			"rotation":[
				0,
				-0.9984958171844482,
				0,
				0.05482815206050873
			],
			"scale":[
				0.007994879968464375,
				0.0079948790371418,
				0.007994879968464375
			],
			"translation":[
				0,
				0.18704359233379364,
				-4.7327343963843305e-06
			]
		}
	],
	"materials":[
		{
			"doubleSided":true,
			"name":"metal",
			"pbrMetallicRoughness":{
				"baseColorFactor":[
					0.800000011920929,
					0.800000011920929,
					0.800000011920929,
					1
				],
				"metallicFactor":0.8115941882133484,
				"roughnessFactor":0.1304347813129425
			}
		},
		{
			"doubleSided":true,
			"name":"rubberhandle",
			"pbrMetallicRoughness":{
				"baseColorFactor":[
					0.0018875360256060958,
					0.002576401922851801,
					0.029340621083974838,
					1
				],
				"metallicFactor":0,
				"roughnessFactor":0.5724637508392334
			}
		}
	],
	"meshes":[
		{
			"name":"Spiral.004",
			"primitives":[
				{
					"attributes":{
						"POSITION":0,
						"NORMAL":1,
						"TEXCOORD_0":2
					},
					"indices":3,
					"material":0
				},
				{
					"attributes":{
						"POSITION":4,
						"NORMAL":5,
						"TEXCOORD_0":6
					},
					"indices":7,
					"material":1
				}
			]
		}
	],
	"accessors":[
		{
			"bufferView":0,
			"componentType":5126,
			"count":2011,
			"max":[
				10.702771186828613,
				101.05756378173828,
				10.702058792114258
			],
			"min":[
				-10.702512741088867,
				-22.86016845703125,
				-10.703224182128906
			],
			"type":"VEC3"
		},
		{
			"bufferView":1,
			"componentType":5126,
			"count":2011,
			"type":"VEC3"
		},
		{
			"bufferView":2,
			"componentType":5126,
			"count":2011,
			"type":"VEC2"
		},
		{
			"bufferView":3,
			"componentType":5123,
			"count":11454,
			"type":"SCALAR"
		},
		{
			"bufferView":4,
			"componentType":5126,
			"count":10328,
			"max":[
				2.3470864295959473,
				6.96353816986084,
				2.3463757038116455
			],
			"min":[
				-2.346824884414673,
				-11.096915245056152,
				-2.3475358486175537
			],
			"type":"VEC3"
		},
		{
			"bufferView":5,
			"componentType":5126,
			"count":10328,
			"type":"VEC3"
		},
		{
			"bufferView":6,
			"componentType":5126,
			"count":10328,
			"type":"VEC2"
		},
		{
			"bufferView":7,
			"componentType":5123,
			"count":60822,
			"type":"SCALAR"
		}
	],
	"bufferViews":[
		{
			"buffer":0,
			"byteLength":24132,
			"byteOffset":0,
			"target":34962
		},
		{
			"buffer":0,
			"byteLength":24132,
			"byteOffset":24132,
			"target":34962
		},
		{
			"buffer":0,
			"byteLength":16088,
			"byteOffset":48264,
			"target":34962
		},
		{
			"buffer":0,
			"byteLength":22908,
			"byteOffset":64352,
			"target":34963
		},
		{
			"buffer":0,
			"byteLength":123936,
			"byteOffset":87260,
			"target":34962
		},
		{
			"buffer":0,
			"byteLength":123936,
			"byteOffset":211196,
			"target":34962
		},
		{
			"buffer":0,
			"byteLength":82624,
			"byteOffset":335132,
			"target":34962
		},
		{
			"buffer":0,
			"byteLength":121644,
			"byteOffset":417756,
			"target":34963
		}
	],
	"buffers":[
		{
			"byteLength":539400,
			"uri":"scene.bin"
		}
	]
}
