{
	"asset":{
		"generator":"Khronos glTF Blender I/O v4.2.57",
		"version":"2.0"
	},
	"scene":0,
	"scenes":[
		{
			"name":"Scene",
			"nodes":[
				0,
				1
			]
		}
	],
	"nodes":[
		{
			"mesh":0,
			"name":"base",
			"scale":[
				0.02878456935286522,
				0.02878456935286522,
				0.02878456935286522
			],
			"translation":[
				0,
				0.0032427895348519087,
				0
			]
		},
		{
			"mesh":1,
			"name":"cap",
			"scale":[
				0.033740345388650894,
				0.033740345388650894,
				0.033740345388650894
			],
			"translation":[
				0,
				0.08650343865156174,
				0
			]
		}
	],
	"materials":[
		{
			"doubleSided":true,
			"name":"Material.002",
			"pbrMetallicRoughness":{
				"baseColorFactor":[
					0.8000229597091675,
					0.1352834850549698,
					0.04480593651533127,
					1
				],
				"metallicFactor":0.2753623127937317
			}
		},
		{
			"doubleSided":true,
			"name":"yellowplastic",
			"pbrMetallicRoughness":{
				"baseColorFactor":[
					0.8003470301628113,
					0.3800162374973297,
					0.010517885908484459,
					1
				],
				"metallicFactor":0.28985506296157837
			}
		}
	],
	"meshes":[
		{
			"name":"Circle",
			"primitives":[
				{
					"attributes":{
						"POSITION":0,
						"NORMAL":1,
						"TEXCOORD_0":2
					},
					"indices":3,
					"material":0
				}
			]
		},
		{
			"name":"Circle.001",
			"primitives":[
				{
					"attributes":{
						"POSITION":4,
						"NORMAL":5,
						"TEXCOORD_0":6
					},
					"indices":7,
					"material":1
				}
			]
		}
	],
	"accessors":[
		{
			"bufferView":0,
			"componentType":5126,
			"count":16706,
			"max":[
				1.3214669227600098,
				3.1246633529663086,
				1.3214669227600098
			],
			"min":[
				-1.3214669227600098,
				-0.11265774071216583,
				-1.3214669227600098
			],
			"type":"VEC3"
		},
		{
			"bufferView":1,
			"componentType":5126,
			"count":16706,
			"type":"VEC3"
		},
		{
			"bufferView":2,
			"componentType":5126,
			"count":16706,
			"type":"VEC2"
		},
		{
			"bufferView":3,
			"componentType":5123,
			"count":100224,
			"type":"SCALAR"
		},
		{
			"bufferView":4,
			"componentType":5126,
			"count":5760,
			"max":[
				1,
				0.5211177468299866,
				1
			],
			"min":[
				-1,
				-7.944888835709207e-08,
				-1
			],
			"type":"VEC3"
		},
		{
			"bufferView":5,
			"componentType":5126,
			"count":5760,
			"type":"VEC3"
		},
		{
			"bufferView":6,
			"componentType":5126,
			"count":5760,
			"type":"VEC2"
		},
		{
			"bufferView":7,
			"componentType":5123,
			"count":34548,
			"type":"SCALAR"
		}
	],
	"bufferViews":[
		{
			"buffer":0,
			"byteLength":200472,
			"byteOffset":0,
			"target":34962
		},
		{
			"buffer":0,
			"byteLength":200472,
			"byteOffset":200472,
			"target":34962
		},
		{
			"buffer":0,
			"byteLength":133648,
			"byteOffset":400944,
			"target":34962
		},
		{
			"buffer":0,
			"byteLength":200448,
			"byteOffset":534592,
			"target":34963
		},
		{
			"buffer":0,
			"byteLength":69120,
			"byteOffset":735040,
			"target":34962
		},
		{
			"buffer":0,
			"byteLength":69120,
			"byteOffset":804160,
			"target":34962
		},
		{
			"buffer":0,
			"byteLength":46080,
			"byteOffset":873280,
			"target":34962
		},
		{
			"buffer":0,
			"byteLength":69096,
			"byteOffset":919360,
			"target":34963
		}
	],
	"buffers":[
		{
			"byteLength":988456,
			"uri":"scene.bin"
		}
	]
}
