{
	"asset":{
		"generator":"Khronos glTF Blender I/O v4.2.57",
		"version":"2.0"
	},
	"scene":0,
	"scenes":[
		{
			"name":"Scene",
			"nodes":[
				0,
				1,
				2,
				3
			]
		}
	],
	"nodes":[
		{
			"name":"Empty",
			"rotation":[
				0.4924618601799011,
				-0.5076582431793213,
				0.49283063411712646,
				0.5068358778953552
			],
			"scale":[
				0.08309715986251831,
				0.08309715986251831,
				0.08309715986251831
			],
			"translation":[
				0.7136600017547607,
				0,
				0
			]
		},
		{
			"mesh":0,
			"name":"hook",
			"rotation":[
				-0.5692164301872253,
				-0.4195149540901184,
				0.5692163109779358,
				0.4195149838924408
			],
			"scale":[
				0.08916604518890381,
				0.08916604518890381,
				0.08916604518890381
			],
			"translation":[
				0,
				0.49906912446022034,
				-0.11445953696966171
			]
		},
		{
			"name":"NurbsPath.001",
			"rotation":[
				-0.41086074709892273,
				-0.62480628490448,
				-0.45859408378601074,
				0.4801064431667328
			],
			"scale":[
				0.36591869592666626,
				0.36591869592666626,
				0.36591875553131104
			],
			"translation":[
				0,
				0.18488191068172455,
				1.3452869653701782
			]
		},
		{
			"mesh":1,
			"name":"Cylinder",
			"scale":[
				0.24270278215408325,
				0.24270278215408325,
				0.24270278215408325
			],
			"translation":[
				0,
				-0.021846625953912735,
				0.10076786577701569
			]
		}
	],
	"materials":[
		{
			"doubleSided":true,
			"name":"Material.001",
			"pbrMetallicRoughness":{
				"baseColorTexture":{
					"index":0
				},
				"metallicRoughnessTexture":{
					"index":1
				}
			}
		},
		{
			"doubleSided":true,
			"name":"Material.002",
			"pbrMetallicRoughness":{
				"baseColorTexture":{
					"index":2
				},
				"metallicRoughnessTexture":{
					"index":3
				},
				"roughnessFactor":0.5
			}
		}
	],
	"meshes":[
		{
			"name":"NurbsPath",
			"primitives":[
				{
					"attributes":{
						"POSITION":0,
						"NORMAL":1,
						"TEXCOORD_0":2
					},
					"indices":3,
					"material":0
				}
			]
		},
		{
			"name":"Cylinder",
			"primitives":[
				{
					"attributes":{
						"POSITION":4,
						"NORMAL":5,
						"TEXCOORD_0":6
					},
					"indices":7,
					"material":1
				}
			]
		}
	],
	"textures":[
		{
			"sampler":0,
			"source":0
		},
		{
			"sampler":0,
			"source":1
		},
		{
			"sampler":0,
			"source":2
		},
		{
			"sampler":0,
			"source":3
		}
	],
	"images":[
		{
			"mimeType":"image/jpeg",
			"name":"Poliigon_MetalSteelBrushed_7174_BaseColor",
			"uri":"Poliigon_MetalSteelBrushed_7174_BaseColor.jpg"
		},
		{
			"mimeType":"image/png",
			"name":"Poliigon_MetalSteelBrushed_7174_Metallic.jpg-Poliigon_MetalSteelBrushed_7174_Roughness.jpg",
			"uri":"Poliigon_MetalSteelBrushed_7174_Metallic_jpg-Poliigon_MetalSteelBrushed_7174_Roughness_jpg.png"
		},
		{
			"mimeType":"image/jpeg",
			"name":"Poliigon_PlasticMoldDryBlast_7495_BaseColor",
			"uri":"Poliigon_PlasticMoldDryBlast_7495_BaseColor.jpg"
		},
		{
			"mimeType":"image/png",
			"name":"Poliigon_PlasticMoldDryBlast_7495_Metallic",
			"uri":"Poliigon_PlasticMoldDryBlast_7495_Metallic.png"
		}
	],
	"accessors":[
		{
			"bufferView":0,
			"componentType":5126,
			"count":8649,
			"max":[
				3.1054811477661133,
				0.2796001136302948,
				0.1543331891298294
			],
			"min":[
				-5.0909199714660645,
				-2.8600564002990723,
				-0.1300722360610962
			],
			"type":"VEC3"
		},
		{
			"bufferView":1,
			"componentType":5126,
			"count":8649,
			"type":"VEC3"
		},
		{
			"bufferView":2,
			"componentType":5126,
			"count":8649,
			"type":"VEC2"
		},
		{
			"bufferView":3,
			"componentType":5123,
			"count":49188,
			"type":"SCALAR"
		},
		{
			"bufferView":4,
			"componentType":5126,
			"count":2011,
			"max":[
				1,
				0.3776009678840637,
				1
			],
			"min":[
				-1,
				-0.15126603841781616,
				-1
			],
			"type":"VEC3"
		},
		{
			"bufferView":5,
			"componentType":5126,
			"count":2011,
			"type":"VEC3"
		},
		{
			"bufferView":6,
			"componentType":5126,
			"count":2011,
			"type":"VEC2"
		},
		{
			"bufferView":7,
			"componentType":5123,
			"count":3444,
			"type":"SCALAR"
		}
	],
	"bufferViews":[
		{
			"buffer":0,
			"byteLength":103788,
			"byteOffset":0,
			"target":34962
		},
		{
			"buffer":0,
			"byteLength":103788,
			"byteOffset":103788,
			"target":34962
		},
		{
			"buffer":0,
			"byteLength":69192,
			"byteOffset":207576,
			"target":34962
		},
		{
			"buffer":0,
			"byteLength":98376,
			"byteOffset":276768,
			"target":34963
		},
		{
			"buffer":0,
			"byteLength":24132,
			"byteOffset":375144,
			"target":34962
		},
		{
			"buffer":0,
			"byteLength":24132,
			"byteOffset":399276,
			"target":34962
		},
		{
			"buffer":0,
			"byteLength":16088,
			"byteOffset":423408,
			"target":34962
		},
		{
			"buffer":0,
			"byteLength":6888,
			"byteOffset":439496,
			"target":34963
		}
	],
	"samplers":[
		{
			"magFilter":9729,
			"minFilter":9987
		}
	],
	"buffers":[
		{
			"byteLength":446384,
			"uri":"scene.bin"
		}
	]
}
