{
	"asset":{
		"generator":"Khronos glTF Blender I/O v4.2.57",
		"version":"2.0"
	},
	"extensionsUsed":[
		"KHR_materials_transmission",
		"KHR_materials_ior"
	],
	"scene":0,
	"scenes":[
		{
			"name":"Scene",
			"nodes":[
				0,
				1
			]
		}
	],
	"nodes":[
		{
			"mesh":0,
			"name":"Cube",
			"translation":[
				0,
				1,
				0
			]
		},
		{
			"mesh":1,
			"name":"Cube.001",
			"scale":[
				0.9139650464057922,
				0.9139650464057922,
				0.9139650464057922
			],
			"translation":[
				0,
				0.9898019433021545,
				0
			]
		}
	],
	"materials":[
		{
			"doubleSided":true,
			"name":"Material.002",
			"normalTexture":{
				"index":0
			},
			"pbrMetallicRoughness":{
				"baseColorTexture":{
					"index":1
				},
				"metallicFactor":0,
				"metallicRoughnessTexture":{
					"index":2
				}
			}
		},
		{
			"alphaMode":"BLEND",
			"doubleSided":true,
			"extensions":{
				"KHR_materials_transmission":{
					"transmissionFactor":1
				},
				"KHR_materials_ior":{
					"ior":1.3329999446868896
				}
			},
			"name":"Material.003",
			"pbrMetallicRoughness":{
				"baseColorFactor":[
					0.01713017374277115,
					0.534787654876709,
					0.8000858426094055,
					1
				],
				"metallicFactor":0,
				"roughnessFactor":0
			}
		}
	],
	"meshes":[
		{
			"name":"Cube",
			"primitives":[
				{
					"attributes":{
						"POSITION":0,
						"NORMAL":1,
						"TEXCOORD_0":2
					},
					"indices":3,
					"material":0
				}
			]
		},
		{
			"name":"Cube.002",
			"primitives":[
				{
					"attributes":{
						"POSITION":4,
						"NORMAL":5,
						"TEXCOORD_0":6
					},
					"indices":7,
					"material":1
				}
			]
		}
	],
	"textures":[
		{
			"sampler":0,
			"source":0
		},
		{
			"sampler":0,
			"source":1
		},
		{
			"sampler":0,
			"source":2
		}
	],
	"images":[
		{
			"mimeType":"image/jpeg",
			"name":"brown_mud_leaves_01_nor_gl_1k",
			"uri":"brown_mud_leaves_01_nor_gl_1k.jpg"
		},
		{
			"mimeType":"image/jpeg",
			"name":"brown_mud_leaves_01_diff_1k",
			"uri":"brown_mud_leaves_01_diff_1k.jpg"
		},
		{
			"mimeType":"image/png",
			"name":"brown_mud_leaves_01_rough_1k",
			"uri":"brown_mud_leaves_01_rough_1k.png"
		}
	],
	"accessors":[
		{
			"bufferView":0,
			"componentType":5126,
			"count":2760,
			"max":[
				1,
				1,
				1
			],
			"min":[
				-1,
				-1,
				-1
			],
			"type":"VEC3"
		},
		{
			"bufferView":1,
			"componentType":5126,
			"count":2760,
			"type":"VEC3"
		},
		{
			"bufferView":2,
			"componentType":5126,
			"count":2760,
			"type":"VEC2"
		},
		{
			"bufferView":3,
			"componentType":5123,
			"count":10440,
			"type":"SCALAR"
		},
		{
			"bufferView":4,
			"componentType":5126,
			"count":4224,
			"max":[
				1.015393853187561,
				1.0832592248916626,
				1.0857294797897339
			],
			"min":[
				-1.015393853187561,
				-1.0943706035614014,
				-1.0857294797897339
			],
			"type":"VEC3"
		},
		{
			"bufferView":5,
			"componentType":5126,
			"count":4224,
			"type":"VEC3"
		},
		{
			"bufferView":6,
			"componentType":5126,
			"count":4224,
			"type":"VEC2"
		},
		{
			"bufferView":7,
			"componentType":5123,
			"count":9216,
			"type":"SCALAR"
		}
	],
	"bufferViews":[
		{
			"buffer":0,
			"byteLength":33120,
			"byteOffset":0,
			"target":34962
		},
		{
			"buffer":0,
			"byteLength":33120,
			"byteOffset":33120,
			"target":34962
		},
		{
			"buffer":0,
			"byteLength":22080,
			"byteOffset":66240,
			"target":34962
		},
		{
			"buffer":0,
			"byteLength":20880,
			"byteOffset":88320,
			"target":34963
		},
		{
			"buffer":0,
			"byteLength":50688,
			"byteOffset":109200,
			"target":34962
		},
		{
			"buffer":0,
			"byteLength":50688,
			"byteOffset":159888,
			"target":34962
		},
		{
			"buffer":0,
			"byteLength":33792,
			"byteOffset":210576,
			"target":34962
		},
		{
			"buffer":0,
			"byteLength":18432,
			"byteOffset":244368,
			"target":34963
		}
	],
	"samplers":[
		{
			"magFilter":9729,
			"minFilter":9987
		}
	],
	"buffers":[
		{
			"byteLength":262800,
			"uri":"scene.bin"
		}
	]
}
