{
	"asset":{
		"generator":"Khronos glTF Blender I/O v4.2.57",
		"version":"2.0"
	},
	"scene":0,
	"scenes":[
		{
			"name":"Scene",
			"nodes":[
				0
			]
		}
	],
	"nodes":[
		{
			"mesh":0,
			"name":"base",
			"rotation":[
				0.7071068286895752,
				0,
				0,
				0.7071068286895752
			],
			"translation":[
				0,
				0.4433102011680603,
				-0.16504548490047455
			]
		}
	],
	"materials":[
		{
			"doubleSided":true,
			"name":"fabric",
			"normalTexture":{
				"index":0
			},
			"pbrMetallicRoughness":{
				"baseColorTexture":{
					"index":1
				},
				"metallicFactor":0,
				"metallicRoughnessTexture":{
					"index":2
				}
			}
		}
	],
	"meshes":[
		{
			"name":"Plane",
			"primitives":[
				{
					"attributes":{
						"POSITION":0,
						"NORMAL":1,
						"TEXCOORD_0":2
					},
					"indices":3,
					"material":0
				}
			]
		}
	],
	"textures":[
		{
			"sampler":0,
			"source":0
		},
		{
			"sampler":0,
			"source":1
		},
		{
			"sampler":0,
			"source":2
		}
	],
	"images":[
		{
			"mimeType":"image/jpeg",
			"name":"fabric_pattern_07_nor_gl_1k",
			"uri":"fabric_pattern_07_nor_gl_1k.jpg"
		},
		{
			"mimeType":"image/png",
			"name":"fabric_pattern_07_col_2_1k",
			"uri":"fabric_pattern_07_col_2_1k.png"
		},
		{
			"mimeType":"image/png",
			"name":"fabric_pattern_07_rough_1k",
			"uri":"fabric_pattern_07_rough_1k.png"
		}
	],
	"accessors":[
		{
			"bufferView":0,
			"componentType":5126,
			"count":174518,
			"max":[
				0.4999987483024597,
				0.2446005940437317,
				0.5245264768600464
			],
			"min":[
				-0.5000016093254089,
				-0.45412737131118774,
				-0.8418793082237244
			],
			"type":"VEC3"
		},
		{
			"bufferView":1,
			"componentType":5126,
			"count":174518,
			"type":"VEC3"
		},
		{
			"bufferView":2,
			"componentType":5126,
			"count":174518,
			"type":"VEC2"
		},
		{
			"bufferView":3,
			"componentType":5125,
			"count":793056,
			"type":"SCALAR"
		}
	],
	"bufferViews":[
		{
			"buffer":0,
			"byteLength":2094216,
			"byteOffset":0,
			"target":34962
		},
		{
			"buffer":0,
			"byteLength":2094216,
			"byteOffset":2094216,
			"target":34962
		},
		{
			"buffer":0,
			"byteLength":1396144,
			"byteOffset":4188432,
			"target":34962
		},
		{
			"buffer":0,
			"byteLength":3172224,
			"byteOffset":5584576,
			"target":34963
		}
	],
	"samplers":[
		{
			"magFilter":9729,
			"minFilter":9987
		}
	],
	"buffers":[
		{
			"byteLength":8756800,
			"uri":"scene.bin"
		}
	]
}
