{
	"asset":{
		"generator":"Khronos glTF Blender I/O v4.2.57",
		"version":"2.0"
	},
	"extensionsUsed":[
		"KHR_materials_transmission"
	],
	"scene":0,
	"scenes":[
		{
			"name":"Scene",
			"nodes":[
				0,
				1
			]
		}
	],
	"nodes":[
		{
			"mesh":0,
			"name":"base",
			"scale":[
				0.05519269034266472,
				0.05519269034266472,
				0.05519269034266472
			]
		},
		{
			"mesh":1,
			"name":"cap",
			"scale":[
				0.015117966569960117,
				0.015117966569960117,
				0.015117966569960117
			],
			"translation":[
				0,
				0.06354182958602905,
				0
			]
		}
	],
	"materials":[
		{
			"doubleSided":true,
			"extensions":{
				"KHR_materials_transmission":{
					"transmissionFactor":1
				}
			},
			"name":"clearglass",
			"pbrMetallicRoughness":{
				"baseColorFactor":[
					0.800000011920929,
					0.800000011920929,
					0.800000011920929,
					1
				],
				"metallicFactor":0,
				"roughnessFactor":0.004545450210571289
			}
		},
		{
			"doubleSided":true,
			"name":"silver",
			"pbrMetallicRoughness":{
				"baseColorFactor":[
					0.800000011920929,
					0.800000011920929,
					0.800000011920929,
					1
				],
				"roughnessFactor":0.145454540848732
			}
		}
	],
	"meshes":[
		{
			"name":"Plane.001",
			"primitives":[
				{
					"attributes":{
						"POSITION":0,
						"NORMAL":1,
						"TEXCOORD_0":2
					},
					"indices":3,
					"material":0
				}
			]
		},
		{
			"name":"Circle",
			"primitives":[
				{
					"attributes":{
						"POSITION":4,
						"NORMAL":5,
						"TEXCOORD_0":6
					},
					"indices":7,
					"material":1
				}
			]
		}
	],
	"accessors":[
		{
			"bufferView":0,
			"componentType":5126,
			"count":7218,
			"max":[
				0.358562171459198,
				1.1609400510787964,
				0.3585622310638428
			],
			"min":[
				-0.358562171459198,
				9.025303734233603e-05,
				-0.3585621416568756
			],
			"type":"VEC3"
		},
		{
			"bufferView":1,
			"componentType":5126,
			"count":7218,
			"type":"VEC3"
		},
		{
			"bufferView":2,
			"componentType":5126,
			"count":7218,
			"type":"VEC2"
		},
		{
			"bufferView":3,
			"componentType":5123,
			"count":39552,
			"type":"SCALAR"
		},
		{
			"bufferView":4,
			"componentType":5126,
			"count":7880,
			"max":[
				1.0597281455993652,
				1.7236969470977783,
				1.0597281455993652
			],
			"min":[
				-1.0597281455993652,
				0,
				-1.0597281455993652
			],
			"type":"VEC3"
		},
		{
			"bufferView":5,
			"componentType":5126,
			"count":7880,
			"type":"VEC3"
		},
		{
			"bufferView":6,
			"componentType":5126,
			"count":7880,
			"type":"VEC2"
		},
		{
			"bufferView":7,
			"componentType":5123,
			"count":13080,
			"type":"SCALAR"
		}
	],
	"bufferViews":[
		{
			"buffer":0,
			"byteLength":86616,
			"byteOffset":0,
			"target":34962
		},
		{
			"buffer":0,
			"byteLength":86616,
			"byteOffset":86616,
			"target":34962
		},
		{
			"buffer":0,
			"byteLength":57744,
			"byteOffset":173232,
			"target":34962
		},
		{
			"buffer":0,
			"byteLength":79104,
			"byteOffset":230976,
			"target":34963
		},
		{
			"buffer":0,
			"byteLength":94560,
			"byteOffset":310080,
			"target":34962
		},
		{
			"buffer":0,
			"byteLength":94560,
			"byteOffset":404640,
			"target":34962
		},
		{
			"buffer":0,
			"byteLength":63040,
			"byteOffset":499200,
			"target":34962
		},
		{
			"buffer":0,
			"byteLength":26160,
			"byteOffset":562240,
			"target":34963
		}
	],
	"buffers":[
		{
			"byteLength":588400,
			"uri":"scene.bin"
		}
	]
}
