<svg width="128" height="128" viewBox="0 0 128 128" fill="none" xmlns="http://www.w3.org/2000/svg">
<path d="M116 95.7333L12.0132 43.3093V39.6267C12.0094 38.3214 12.2633 37.0282 12.7606 35.8214C13.2578 34.6146 13.9885 33.5178 14.9107 32.5941C15.8329 31.6704 16.9285 30.938 18.1345 30.4388C19.3406 29.9396 20.6333 29.6836 21.9386 29.6853H80.5972C81.9027 29.6832 83.1957 29.939 84.4021 30.438C85.6084 30.937 86.7043 31.6694 87.6268 32.5932C88.5493 33.5169 89.2802 34.6138 89.7776 35.8208C90.275 37.0278 90.5291 38.3212 90.5252 39.6267V44.1467" stroke="#45505B" stroke-linecap="round" stroke-linejoin="round"/>
<path d="M116 31.56L12 83.9867L12.0133 88.376C12.0095 89.6815 12.2635 90.9749 12.7609 92.1819C13.2583 93.3889 13.9893 94.4858 14.9117 95.4095C15.8342 96.3332 16.9301 97.0656 18.1365 97.5646C19.3428 98.0637 20.6359 98.3194 21.9413 98.3173H80.5973C81.9028 98.3194 83.1959 98.0637 84.4022 97.5646C85.6085 97.0656 86.7044 96.3332 87.6269 95.4095C88.5494 94.4858 89.2803 93.3889 89.7777 92.1819C90.2751 90.9749 90.5292 89.6815 90.5253 88.376V83.1813" stroke="#45505B" stroke-linecap="round" stroke-linejoin="round"/>
</svg>
