<svg width="128" height="128" viewBox="0 0 128 128" fill="none" xmlns="http://www.w3.org/2000/svg">
<path d="M64 69.4933C69.2577 69.4933 73.52 65.2311 73.52 59.9733C73.52 54.7156 69.2577 50.4533 64 50.4533C58.7422 50.4533 54.48 54.7156 54.48 59.9733C54.48 65.2311 58.7422 69.4933 64 69.4933Z" fill="#45505B"/>
<path d="M37.3439 78.9013L35.2373 78.3627C19.5893 74.4107 10.6133 67.6907 10.6133 59.952C10.6133 52.208 19.5946 45.4933 35.2373 41.5413L37.3439 41.008L37.9359 43.0933C39.5175 48.5531 41.5438 53.874 43.9946 59.0027L44.4479 59.952L43.9946 60.9013C41.5413 66.0373 39.5093 71.36 37.9359 76.8213L37.3439 78.9013ZM34.2666 46.3947C22.3786 49.744 15.0773 54.8533 15.0773 59.952C15.0773 65.04 22.3733 70.1547 34.2666 73.4987C35.7226 68.8693 37.4826 64.3413 39.5199 59.952C37.4679 55.5554 35.7128 51.0261 34.2666 46.3947ZM90.6506 78.9013L90.0639 76.8107C88.4782 71.3499 86.4502 66.0274 84 60.896L83.5466 59.952L84 58.9973C86.4533 53.872 88.4746 48.544 90.0639 43.0827L90.6506 41.0027L92.7573 41.536C108.411 45.488 117.381 52.2027 117.381 59.952C117.381 67.696 108.405 74.4107 92.7573 78.3627L90.6506 78.9013ZM88.464 59.952C90.5973 64.5707 92.3733 69.1147 93.7279 73.4987C105.621 70.1547 112.923 65.04 112.923 59.952C112.923 54.8533 105.627 49.7493 93.7279 46.3947C92.2734 51.0247 90.5149 55.5536 88.464 59.952Z" fill="#45505B"/>
<path d="M34.2346 46.3733L33.648 44.2933C29.2426 28.784 30.576 17.6747 37.312 13.8027C43.8986 9.98933 54.496 14.496 65.5946 25.8827L67.1093 27.44L65.5946 28.992C61.6526 33.0917 58.0497 37.5044 54.8213 42.1867L54.2186 43.0507L53.1733 43.136C47.4964 43.5819 41.8653 44.4898 36.336 45.8507L34.2346 46.3733ZM42.672 16.8853C41.4773 16.8853 40.4213 17.1467 39.5306 17.6587C35.1146 20.2027 34.336 29.0613 37.376 41.0187C42.128 39.968 46.9226 39.216 51.7546 38.7947C54.552 34.827 57.6038 31.0448 60.8906 27.472C53.9413 20.7147 47.3813 16.8853 42.672 16.8853ZM85.3226 107.467C78.9866 107.467 70.848 102.688 62.4 94.016L60.8906 92.464L62.4 90.9173C66.3426 86.8111 69.9472 82.3932 73.1786 77.7067L73.776 76.8533L74.8106 76.752C80.4895 76.314 86.1227 75.4096 91.6533 74.048L93.76 73.5147L94.352 75.6C98.736 91.0987 97.408 102.224 90.6826 106.096C89.0497 107.022 87.1994 107.495 85.3226 107.467ZM67.1093 92.4267C74.0533 99.184 80.6186 103.019 85.3226 103.019C86.5226 103.019 87.5786 102.752 88.464 102.245C92.8853 99.696 93.6693 90.8213 90.6186 78.864C85.872 79.92 81.072 80.6773 76.2293 81.0987C73.4437 85.0726 70.397 88.857 67.1093 92.4267Z" fill="#45505B"/>
<path d="M93.76 46.3733L91.6533 45.8453C86.123 44.4802 80.4898 43.5722 74.8106 43.1307L73.776 43.04L73.1786 42.176C69.9517 37.4911 66.3468 33.0782 62.4 28.9813L60.8906 27.4293L62.4 25.8827C73.4933 14.5013 84.0853 9.99467 90.6826 13.8027C97.4133 17.68 98.752 28.7893 94.352 44.2933L93.76 46.3733ZM76.2293 38.7947C81.3173 39.248 86.1386 40.0107 90.6186 41.0187C93.664 29.0613 92.8853 20.2027 88.464 17.6533C84.0693 15.1093 75.7973 19.0027 67.1093 27.472C70.3946 31.0453 73.4453 34.8213 76.2293 38.7947ZM42.672 107.467C40.7953 107.493 38.9454 107.02 37.312 106.096C30.576 102.224 29.2426 91.104 33.6426 75.6L34.2186 73.5147L36.3253 74.048C41.4666 75.344 47.1306 76.256 53.168 76.752L54.2026 76.8533L54.8053 77.7067C58.0266 82.3893 61.632 86.8107 65.5786 90.9173L67.0933 92.464L65.5786 94.016C57.136 102.693 48.9973 107.467 42.672 107.467ZM37.376 78.8693C34.336 90.8267 35.1146 99.7013 39.5306 102.251C43.9306 104.757 52.176 100.891 60.8906 92.4267C57.605 88.8528 54.5534 85.0707 51.7546 81.104C46.9178 80.6762 42.1145 79.9297 37.376 78.8693Z" fill="#45505B"/>
<path d="M64 81.6693C60.336 81.6693 56.576 81.5147 52.8 81.2L51.7547 81.1093L51.152 80.2453C49.0227 77.1835 47.0193 74.036 45.1467 70.8107C43.288 67.5767 41.5603 64.2691 39.968 60.896L39.52 59.952L39.968 58.9973C41.5627 55.6267 43.2854 52.32 45.1467 49.088C46.9974 45.9093 49.0187 42.7307 51.152 39.648L51.7547 38.7947L52.8 38.6987C60.2501 38.0747 67.7393 38.0747 75.1893 38.6987L76.224 38.8L76.8267 39.6533C81.0923 45.78 84.8386 52.2523 88.0267 59.0027L88.4693 59.9573L88.0267 60.9013C84.8474 67.6563 81.1007 74.1293 76.8267 80.2507L76.224 81.1147L75.1893 81.2053C71.424 81.5093 67.6587 81.6693 64 81.6693ZM54.2187 76.848C60.8054 77.344 67.1947 77.344 73.776 76.848C77.4501 71.4678 80.7161 65.82 83.5467 59.952C80.7261 54.0787 77.4597 48.4302 73.776 43.056C67.2665 42.5547 60.7282 42.5547 54.2187 43.056C50.532 48.4282 47.2654 54.077 44.448 59.952C47.2847 65.8168 50.5505 71.4641 54.2187 76.848Z" fill="#45505B"/>
</svg>
