<svg width="128" height="128" viewBox="0 0 128 128" fill="none" xmlns="http://www.w3.org/2000/svg">
<path d="M47.6169 98.12C28.4249 103.482 59.2939 114.559 83.7319 104.089C79.7289 102.533 76.8579 100.738 76.8579 100.738C65.9609 102.798 60.9059 102.96 51.0139 101.83C42.8499 100.895 47.6169 98.12 47.6169 98.12ZM80.8059 87.66C66.3619 90.439 58.0189 90.35 47.4519 89.26C39.2809 88.415 44.6299 84.455 44.6299 84.455C23.4929 91.471 56.3969 99.432 85.9389 90.791C82.7989 89.685 80.8059 87.66 80.8059 87.66ZM92.1249 27.085C92.1259 27.085 49.3939 37.754 69.8019 61.272C75.8259 68.207 68.2219 74.442 68.2219 74.442C68.2219 74.442 83.5109 66.551 76.4909 56.665C69.9319 47.45 64.9039 42.872 92.1249 27.085ZM102.123 108.229C102.123 108.229 105.652 111.139 98.2349 113.388C84.1329 117.66 39.5289 118.948 27.1399 113.559C22.6899 111.621 31.0389 108.934 33.6659 108.367C36.4049 107.774 37.9689 107.882 37.9689 107.882C33.0169 104.395 5.95587 114.732 24.2269 117.697C74.0479 125.773 115.044 114.06 102.123 108.229ZM84.9999 77.896C87.3949 76.262 90.7029 74.843 90.7029 74.843C90.7029 74.843 81.2789 76.528 71.8899 77.317C60.3959 78.281 48.0669 78.471 41.8779 77.643C27.2259 75.684 49.9109 70.295 49.9109 70.295C49.9109 70.295 41.0989 69.699 30.2669 74.939C17.4549 81.134 61.9579 83.958 84.9999 77.896ZM90.6089 93.041C90.5009 93.331 90.1409 93.657 90.1409 93.657C121.414 85.436 109.916 64.678 94.9629 69.932C93.6509 70.396 92.9629 71.475 92.9629 71.475C92.9629 71.475 93.7919 71.141 95.6409 70.755C103.2 69.18 114.03 80.874 90.6089 93.041ZM64.1809 70.069C59.5669 59.64 43.9209 50.516 64.1879 34.51C89.4589 14.563 76.4919 1.58701 76.4919 1.58701C81.7219 22.195 58.0409 28.42 49.4929 41.254C43.6719 49.999 52.3499 59.396 64.1809 70.069ZM91.4549 121.817C72.2679 125.429 48.6009 125.008 34.5679 122.691C34.5679 122.691 37.4419 125.071 52.2139 126.022C74.6899 127.459 109.214 125.222 110.03 114.586C110.031 114.586 108.46 118.618 91.4549 121.817Z" fill="#45505B"/>
</svg>
