<svg xmlns="http://www.w3.org/2000/svg" xmlns:xlink="http://www.w3.org/1999/xlink" viewBox="0,0,256,256" width="64px" height="64px"><defs><linearGradient x1="32" y1="57" x2="32" y2="7" gradientUnits="userSpaceOnUse" id="color-1"><stop offset="0" stop-color="#c822ff"></stop><stop offset="1" stop-color="#1a6dff"></stop></linearGradient><linearGradient x1="33" y1="50" x2="33" y2="14" gradientUnits="userSpaceOnUse" id="color-2"><stop offset="0" stop-color="#e6abff"></stop><stop offset="1" stop-color="#6dc7ff"></stop></linearGradient></defs><g fill="none" fill-rule="none" stroke="none" stroke-width="none" stroke-linecap="butt" stroke-linejoin="miter" stroke-miterlimit="10" stroke-dasharray="" stroke-dashoffset="0" font-family="none" font-weight="none" font-size="none" text-anchor="none" style="mix-blend-mode: normal"><g transform="scale(4,4)"><path d="M18.4,8h27.2c5.744,0 10.4,4.656 10.4,10.4v27.2c0,5.744 -4.656,10.4 -10.4,10.4h-27.2c-5.744,0 -10.4,-4.656 -10.4,-10.4v-27.2c0,-5.744 4.656,-10.4 10.4,-10.4z" fill="none" fill-rule="nonzero" stroke="url(#color-1)" stroke-width="2"></path><path d="M41.341,14h-5.268l4.39,7.714l-9.658,-7.714h-5.268l4.829,9.429l-10.098,-9.429h-5.268l5.268,12l-5.268,24h5.268l10.098,-25.714l-4.829,25.714h5.268l9.659,-27.429l-4.391,27.429h5.268l9.659,-30z" fill="url(#color-2)" fill-rule="evenodd" stroke="none" stroke-width="1"></path></g></g></svg>