<svg width="100" height="100" viewBox="0 0 100 100" fill="none" xmlns="http://www.w3.org/2000/svg">
<path d="M18.5313 52.8438L9.7042 60.9146C7.82921 62.6438 7.93545 65.6375 9.92712 67.2312C9.92712 67.2312 12.6855 69.7979 13.6834 70.5104C15.2167 71.6042 17.2313 71.7292 18.75 70.6167L29.2855 62.6521L18.5313 52.8438Z" fill="#107C41"/>
<path d="M61.1332 13.9271C52.8478 21.4875 32.677 39.9104 32.677 39.9104L21.6416 50L21.6187 50.0208L33.7624 59.2708L46.027 50L64.5832 35.975L64.6166 15.475C64.6187 13.6625 62.4728 12.7062 61.1332 13.9271Z" fill="url(#paint0_linear_443_348)"/>
<path d="M61.0959 86.0187C62.4334 87.2375 64.5834 86.2896 64.5834 84.4792V64.0271L46.0271 50L32.6792 39.9104L18.75 29.3833C17.2313 28.2708 15.2167 28.3958 13.6834 29.4896C12.6855 30.2021 9.92712 32.7687 9.92712 32.7687C7.93545 34.3625 7.82921 37.3562 9.7042 39.0854L21.6417 50L32.6771 60.0896L61.0959 86.0187Z" fill="#21A366"/>
<path d="M87.5416 17.2708L69.1666 8.64584L69.1687 8.66459C68.1729 8.24792 66.9458 8.39584 66.0937 9.36043L65.9833 9.46042C66.025 9.49584 66.0687 9.52501 66.1062 9.56459C68.1854 8.59168 70.8333 10.0333 70.8333 12.5854V31.25V68.75V87.3896C70.8333 90.0125 68.0333 91.4688 65.9271 90.3167C65.8916 90.3417 65.8562 90.3667 65.8208 90.3896L66.0958 90.6396C66.9479 91.6042 68.175 91.75 69.1708 91.3354L69.1666 91.3542L87.5416 82.7292C90.0208 81.8542 91.6666 79.5 91.6666 76.8542V23.1458C91.6666 20.5 90.0208 18.1458 87.5416 17.2708Z" fill="#33C481"/>
<defs>
<linearGradient id="paint0_linear_443_348" x1="58.8999" y1="25.7375" x2="9.5749" y2="79.625" gradientUnits="userSpaceOnUse">
<stop stop-color="#107C41"/>
<stop offset="1" stop-color="#185C37"/>
</linearGradient>
</defs>
</svg>
