<?xml version="1.0" encoding="iso-8859-1"?>
<!-- Generator: Adobe Illustrator 24.1.2, SVG Export Plug-In . SVG Version: 6.00 Build 0)  -->
<svg version="1.1" xmlns="http://www.w3.org/2000/svg" xmlns:xlink="http://www.w3.org/1999/xlink" x="0px" y="0px"
	 viewBox="0 0 50 50" style="enable-background:new 0 0 50 50;" xml:space="preserve">
<g id="Layer_10" style="display:none;">
	<g style="display:inline;opacity:0.05;">
		<g>
			<circle style="fill:#FFFFFF;" cx="25" cy="25" r="21.5"/>
			<path d="M25,4c11.579,0,21,9.421,21,21s-9.421,21-21,21S4,36.579,4,25S13.421,4,25,4 M25,3C12.85,3,3,12.85,3,25s9.85,22,22,22
				s22-9.85,22-22S37.15,3,25,3L25,3z"/>
		</g>
		<g>
			<rect x="5.5" y="5.5" style="fill:#FFFFFF;" width="39" height="39"/>
			<path d="M44,6v38H6V6H44 M45,5H5v40h40V5L45,5z"/>
		</g>
	</g>
</g>
<g id="filled">
</g>
<g id="outlined">
</g>
<g id="rounded">
</g>
<g id="two_x5F_tone">
</g>
<g id="sharp">
</g>
<g id="win10">
</g>
<g id="ios_x5F_out">
	<g>
		<path d="M37.784,20.495c-0.599,0.193-0.79,0.203-0.79,0.203v17.36c-1.032,0.558-1.871,0.821-2.759,0.821
			c-1.082,0-1.697-0.249-2.52-1.518c-1.749-2.701-7.469-11.89-7.469-11.89v11.533l2.251,0.469c0,0-0.066,1.313-2.025,1.463
			c-1.726,0.13-5.477,0.318-5.477,0.318c0-0.469,0.096-1.119,0.844-1.312c0.352-0.091,1.406-0.375,1.406-0.375V22.001h-2.251
			c0-1.031,0.297-1.841,1.388-1.921l5.832-0.329l7.783,12.002v-10.69l-2.251-0.188c0-0.937,0.901-1.513,1.675-1.593L38.497,19
			C38.497,19.656,38.467,20.274,37.784,20.495z"/>
	</g>
	<path style="fill:none;stroke:#000000;stroke-width:2;stroke-linejoin:round;stroke-miterlimit:10;" d="M42.129,43.121l-27,1.742
		C13.976,44.937,13,44.022,13,42.867V16.875c0-1.055,0.819-1.928,1.871-1.996l27-1.742C43.024,13.063,44,13.978,44,15.133v25.992
		C44,42.179,43.181,43.053,42.129,43.121z"/>
	<path style="fill:none;stroke:#000000;stroke-width:2;stroke-linecap:round;stroke-linejoin:round;stroke-miterlimit:10;" d="
		M13,43.6V15L6,8v25.739c0,0.821,0.252,1.622,0.723,2.294l6.797,8.179"/>
	<path style="fill:none;stroke:#000000;stroke-width:2;stroke-linecap:round;stroke-linejoin:round;stroke-miterlimit:10;" d="
		M42.564,13.065l-27.756,1.817c-1.149,0.075-2.275-0.349-3.09-1.163L6,8l25.567-1.852c0.951-0.069,1.896,0.204,2.663,0.77
		l8.925,6.583"/>
</g>
<g id="ios_x5F_filled">
</g>
<g id="color">
</g>
</svg>