<svg width="100" height="100" viewBox="0 0 100 100" fill="none" xmlns="http://www.w3.org/2000/svg">
<path d="M12.5 20.8333C12.5 16.25 16.25 12.5 20.8333 12.5H79.1667C83.75 12.5 87.5 16.25 87.5 20.8333V79.1667C87.5 83.75 83.75 87.5 79.1667 87.5H20.8333C16.25 87.5 12.5 83.75 12.5 79.1667V20.8333Z" fill="#1E88E5"/>
<path d="M20.8333 25.4166C20.8333 22.9166 22.9166 20.8333 25.4166 20.8333H41.2499C43.7499 20.8333 45.8333 22.9166 45.8333 25.4166V70.4166C45.8333 72.9166 43.7499 75 41.2499 75H25.4166C22.9166 75 20.8333 72.9166 20.8333 70.4166V25.4166ZM54.1666 47.5C54.1666 50 56.2499 52.0833 58.7499 52.0833H74.5832C77.0832 52.0833 79.1666 50 79.1666 47.5V25.4166C79.1666 22.9166 77.0832 20.8333 74.5832 20.8333H58.7499C56.2499 20.8333 54.1666 22.9166 54.1666 25.4166V47.5Z" fill="white"/>
</svg>
