<svg width="72" height="71" viewBox="0 0 72 71" fill="none" xmlns="http://www.w3.org/2000/svg">
<g clip-path="url(#clip0_413_430)">
<path d="M72 72L72 0L0 -3.14722e-06L-3.14722e-06 72L72 72Z" fill="#22AAA1"/>
<path d="M36.7986 23.5011C36.9228 23.0453 37.1408 22.6198 37.4388 22.2517C37.7368 21.8835 38.1083 21.5808 38.5295 21.3628C38.9507 21.1448 39.4125 21.0163 39.8854 20.9855C40.3582 20.9547 40.8318 21.0223 41.276 21.1839C41.7201 21.3456 42.125 21.5978 42.4649 21.9244C42.8048 22.251 43.0723 22.6449 43.2502 23.081C43.4282 23.5171 43.5127 23.9857 43.4984 24.4572C43.4841 24.9286 43.3713 25.3924 43.1673 25.8191L35.344 47.3133L30.1314 51.7269L28.9753 44.9953L36.7986 23.5011Z" fill="white"/>
<path d="M47 26L57 36L47 46" stroke="white" stroke-width="5"/>
<path d="M24 46L14 36L24 26" stroke="white" stroke-width="5"/>
</g>
<defs>
<clipPath id="clip0_413_430">
<rect width="72" height="71" rx="10" fill="white"/>
</clipPath>
</defs>
</svg>
