<svg width="128" height="128" viewBox="0 0 128 128" fill="none" xmlns="http://www.w3.org/2000/svg">
<path d="M64 0C28.656 0 0 28.656 0 64C0 99.344 28.656 128 64 128C99.344 128 128 99.344 128 64C128 28.656 99.344 0 64 0ZM37.1307 40.96C41.152 40.96 44.2613 43.888 44.624 47.36C44.992 50.4693 43.712 53.2107 40.24 54.8587C38.4107 55.7707 37.68 55.776 37.312 55.2267C37.1307 54.8587 37.312 54.496 37.68 54.128C40.9707 51.3867 40.9707 49.1893 40.6027 46.0853C40.4213 44.0693 38.96 42.7893 37.4933 42.7893C31.0933 42.7893 21.952 57.0507 23.232 67.4773C23.7813 71.4987 26.16 76.256 31.28 76.256C32.9227 76.256 34.7467 75.7067 36.4 74.976C39.0667 73.568 40.6613 72.4693 42.2507 70.7093C41.8613 65.9893 46.0053 59.7973 52.1227 59.7973C54.8693 59.7973 57.0613 60.8907 57.2427 62.9067C57.6053 65.648 55.232 66.0107 54.5013 66.0107C53.7707 66.0107 52.4853 65.8293 52.4853 65.104C52.304 64.368 54.1333 64.7307 53.952 63.088C53.7653 61.9893 52.672 61.6267 51.5733 61.6267C47.7333 61.6267 45.5413 66.928 46.0853 70.2187C46.272 71.6853 47.0027 73.1467 48.4693 73.1467C49.5627 73.1467 51.2107 71.4933 51.76 69.12C52.1227 67.4773 53.5893 66.3787 54.8693 66.3787C55.4133 66.3787 55.776 66.56 55.9627 67.2907V68.0267C55.7813 68.7573 55.232 70.9493 55.4187 71.4987C55.4187 71.8667 55.6 72.4107 56.3253 72.4107C56.816 72.4107 58.6507 71.4507 60.4693 69.9627C61.0933 66.816 61.8187 63.04 61.8187 62.7253C62 61.4453 62.5493 60.1653 65.1093 60.1653C65.6587 60.1653 66.0213 60.3467 66.2027 61.0773V61.8133L65.4773 65.104C67.8507 61.9947 71.328 59.8027 73.52 59.8027C74.4373 59.8027 75.168 60.3467 75.168 61.264C75.168 61.8133 75.168 62.7253 74.8 63.6427C74.0693 65.6533 73.152 68.7627 72.6027 71.504C72.6027 72.2347 72.7893 72.9653 73.7067 72.9653C74.6187 72.9653 77.36 71.8667 79.552 68.944L79.5893 68.9227C79.5787 68.56 79.552 68.208 79.552 67.8453C79.552 65.6533 79.7387 63.824 80.1067 62.544C80.4693 61.0827 82.2987 59.8027 83.3973 59.8027C83.9467 59.8027 84.4907 60.1707 84.4907 60.7147C84.4907 60.9013 84.4907 61.264 84.3093 61.4453C83.5787 63.824 83.0293 66.016 83.0293 68.2133C83.0293 69.4933 83.2107 71.3173 83.5733 72.416C83.5733 72.5973 83.76 72.784 83.9467 72.784C84.3093 72.784 86.8693 70.4107 88.6933 67.3013C87.0507 66.2027 86.1333 64.3733 86.1333 62.1813C86.1333 58.3413 88.512 56.3307 90.7093 56.3307C92.5387 56.3307 94 57.6107 94 60.1707C94 61.8133 93.4507 63.6373 92.5387 65.2907H93.0827C93.6628 65.3095 94.2404 65.2052 94.7772 64.9846C95.3141 64.764 95.7981 64.432 96.1973 64.0107C96.3651 63.7336 96.6149 63.5156 96.912 63.3867C98.6987 61.12 101.339 59.44 104.432 59.44C106.992 59.44 109.36 60.5333 109.547 62.544C109.909 65.2907 107.531 65.84 106.8 65.84L106.789 65.8293C106.053 65.8293 104.779 65.6427 104.779 64.912C104.779 64.1813 106.427 64.5493 106.24 62.9067C106.059 61.808 104.96 61.44 103.861 61.44C100.203 61.44 97.8347 66.192 98.3787 70.032C98.56 71.4987 99.2907 73.1413 100.752 73.1413C101.851 73.1413 103.499 71.4987 104.229 69.12C104.592 67.6587 106.059 66.3787 107.339 66.3787C107.888 66.3787 108.245 66.56 108.432 67.2907C108.432 67.6587 108.432 68.3893 107.701 70.768C106.795 72.4107 106.789 73.328 106.971 74.0587C107.152 75.52 107.883 76.6187 108.619 77.168C108.8 77.3493 108.981 77.712 108.981 77.712C108.981 78.08 108.8 78.448 108.251 78.448C108.069 78.448 107.888 78.448 107.701 78.2613C104.96 77.168 103.861 75.3387 103.493 73.5093C102.4 74.7893 101.12 75.52 99.6533 75.52C97.28 75.52 94.9067 73.328 94.5333 70.5813C94.4286 69.4123 94.5647 68.2343 94.9333 67.12C93.8507 67.8133 92.6827 68.2027 91.6107 68.2027H90.704C88.32 71.68 85.76 74.0587 83.9307 75.152C83.3095 75.4827 82.6229 75.6721 81.92 75.7067C81.5573 75.7067 81.008 75.52 80.8267 75.152C80.32 74.3413 79.9947 73.0613 79.7973 71.5947C77.232 74.4053 73.6907 75.888 72.048 75.888C70.2187 75.888 69.1253 74.7893 68.944 72.9547V70.9493C69.488 66.928 70.9547 64.5493 70.9547 63.8187C70.9497 63.7222 70.9094 63.6309 70.8416 63.5621C70.7738 63.4933 70.6831 63.4517 70.5867 63.4453C69.3067 63.4453 65.104 67.84 64.368 70.768L63.8187 73.1413C63.456 74.7893 61.808 75.888 60.7147 75.888C60.1653 75.888 59.7973 75.7013 59.616 74.9707V74.24L59.8613 72.9973C57.5413 74.6507 55.2213 75.7067 54.128 75.7067C52.4853 75.7067 51.568 74.7893 51.3867 73.5093C50.288 74.9707 49.0133 75.7067 47.3653 75.7067C45.488 75.7067 43.6533 74.4267 42.768 72.544C41.4667 74.0107 39.9787 75.4933 38.224 76.6187C35.664 78.2667 32.7413 79.5467 29.264 79.5467C26.16 79.5467 23.4133 77.8987 21.952 76.4373C19.7547 74.4267 18.48 71.3173 18.2933 68.3893C17.2 59.4293 22.6827 47.9093 31.0933 42.7893C33.1093 41.696 35.12 40.96 37.1307 40.96ZM89.2373 58.512C88.6827 58.512 88.32 59.4293 88.32 60.3413C88.32 61.8027 89.0507 63.4507 89.968 64.368C90.3256 63.3702 90.5096 62.3186 90.512 61.2587C90.512 59.4293 89.7867 58.512 89.2373 58.512Z" fill="#45505B"/>
</svg>
